# This file is brought to you by Roblox Corporation
# Generated by Roblox Studio

mtllib InputSensor.mtl

g Handle1

v -14.3845 2.62538 -28.5567 
v -14.3845 2.62538 -28.1154 
v -14.3845 2.26538 -28.5567 
v -14.3845 2.26538 -28.1154 
v -14.3603 2.68538 -28.636 
v -14.3603 2.20538 -28.636 
v -14.3603 2.20538 -28.036 
v -14.3603 2.68538 -28.036 
v -14.4396 2.62538 -28.036 
v -14.4396 2.26538 -28.0602 
v -14.4396 2.62538 -28.0602 
v -14.4396 2.26538 -28.036 
v -14.3845 2.26538 -28.1154 
v -14.3845 2.62538 -28.1154 
v -14.3603 2.68538 -28.036 
v -14.3603 2.20538 -28.036 
v -14.3603 2.20538 -28.036 
v -14.3603 2.20538 -28.636 
v -14.3845 2.26538 -28.5567 
v -14.3845 2.26538 -28.1154 
v -14.3603 2.68538 -28.636 
v -14.3845 2.62538 -28.1154 
v -14.3845 2.62538 -28.5567 
v -14.3603 2.68538 -28.036 
v -14.3603 2.20538 -28.636 
v -14.3603 2.68538 -28.636 
v -14.3845 2.62538 -28.5567 
v -14.3845 2.26538 -28.5567 
v -14.3603 2.68538 -28.636 
v -14.9603 2.68538 -28.636 
v -14.9603 2.68538 -28.636 
v -14.9603 2.68538 -28.036 
v -14.3603 2.68538 -28.636 
v -14.3603 2.68538 -28.036 
v -14.4396 2.62538 -28.0602 
v -14.8809 2.62538 -28.0602 
v -14.8809 2.62538 -28.036 
v -14.4396 2.62538 -28.036 
v -14.8809 2.26538 -28.036 
v -14.4396 2.26538 -28.036 
v -14.8809 2.62538 -28.036 
v -14.4396 2.62538 -28.036 
v -14.3603 2.20538 -28.036 
v -14.9603 2.20538 -28.036 
v -14.9603 2.68538 -28.036 
v -14.3603 2.68538 -28.036 
v -14.3603 2.20538 -28.036 
v -14.4396 2.62538 -28.0602 
v -14.4396 2.26538 -28.0602 
v -14.3603 2.68538 -28.036 
v -14.9603 2.68538 -28.036 
v -14.9603 2.20538 -28.036 
v -14.8809 2.26538 -28.0602 
v -14.8809 2.62538 -28.0602 
v -14.9603 2.20538 -28.036 
v -14.3603 2.20538 -28.036 
v -14.4396 2.26538 -28.0602 
v -14.8809 2.26538 -28.0602 
v -14.3603 2.68538 -28.036 
v -14.9603 2.68538 -28.036 
v -14.8809 2.62538 -28.0602 
v -14.4396 2.62538 -28.0602 
v -14.9361 2.62538 -28.5567 
v -14.9361 2.26538 -28.5567 
v -14.9361 2.26538 -28.1154 
v -14.9361 2.62538 -28.1154 
v -14.9603 2.20538 -28.636 
v -14.9603 2.68538 -28.636 
v -14.9603 2.20538 -28.036 
v -14.9603 2.68538 -28.036 
v -14.8809 2.26538 -28.036 
v -14.8809 2.62538 -28.0602 
v -14.8809 2.26538 -28.0602 
v -14.8809 2.62538 -28.036 
v -14.9361 2.62538 -28.1154 
v -14.9361 2.26538 -28.1154 
v -14.9603 2.20538 -28.036 
v -14.9603 2.68538 -28.036 
v -14.9603 2.20538 -28.636 
v -14.9361 2.26538 -28.1154 
v -14.9361 2.26538 -28.5567 
v -14.9603 2.20538 -28.036 
v -14.9603 2.68538 -28.036 
v -14.9603 2.68538 -28.636 
v -14.9361 2.62538 -28.5567 
v -14.9361 2.62538 -28.1154 
v -14.9603 2.68538 -28.636 
v -14.9603 2.20538 -28.636 
v -14.9361 2.26538 -28.5567 
v -14.9361 2.62538 -28.5567 
v -14.3603 2.20538 -28.636 
v -14.9603 2.20538 -28.636 
v -14.9603 2.20538 -28.636 
v -14.3603 2.20538 -28.636 
v -14.3603 2.20538 -28.036 
v -14.9603 2.20538 -28.036 
v -14.8809 2.26538 -28.0602 
v -14.4396 2.26538 -28.0602 
v -14.4396 2.26538 -28.036 
v -14.8809 2.26538 -28.036 
v -14.4396 2.62538 -28.6118 
v -14.8809 2.26538 -28.6118 
v -14.8809 2.62538 -28.6118 
v -14.4396 2.26538 -28.6118 
v -14.3603 2.68538 -28.636 
v -14.4396 2.26538 -28.6118 
v -14.4396 2.62538 -28.6118 
v -14.3603 2.20538 -28.636 
v -14.9603 2.20538 -28.636 
v -14.9603 2.68538 -28.636 
v -14.8809 2.62538 -28.6118 
v -14.8809 2.26538 -28.6118 
v -14.3603 2.20538 -28.636 
v -14.9603 2.20538 -28.636 
v -14.8809 2.26538 -28.6118 
v -14.4396 2.26538 -28.6118 
v -14.9603 2.68538 -28.636 
v -14.3603 2.68538 -28.636 
v -14.4396 2.62538 -28.6118 
v -14.8809 2.62538 -28.6118 

vn 1 0 0 
vn 1 0 0 
vn 1 0 0 
vn 1 0 0 
vn -0.291339 0 -0.952756 
vn -0.291339 0 -0.952756 
vn 0 -1 0 
vn 0 1 0 
vn 1 0 0 
vn 1 0 0 
vn 1 0 0 
vn 1 0 0 
vn 0.952756 0 -0.291339 
vn 0.952756 0 -0.291339 
vn 0.952756 0 -0.291339 
vn 0.952756 0 -0.291339 
vn 0.929134 0.377953 0 
vn 0.929134 0.377953 0 
vn 0.929134 0.377953 0 
vn 0.929134 0.377953 0 
vn 0.929134 -0.377953 0 
vn 0.929134 -0.377953 0 
vn 0.929134 -0.377953 0 
vn 0.929134 -0.377953 0 
vn 0.952756 0 0.291339 
vn 0.952756 0 0.291339 
vn 0.952756 0 0.291339 
vn 0.952756 0 0.291339 
vn -0.291339 0 -0.952756 
vn 0.291339 0 -0.952756 
vn 0 1 0 
vn 0 1 0 
vn 0 1 0 
vn 0 1 0 
vn 0 1 0 
vn 0 1 0 
vn 0 1 0 
vn 0 1 0 
vn 0 0 1 
vn 0 0 1 
vn 0 0 1 
vn 0 0 1 
vn 0 -1 0 
vn 0 -1 0 
vn 0 1 0 
vn 0 1 0 
vn -0.291339 0 0.952756 
vn -0.291339 0 0.952756 
vn -0.291339 0 0.952756 
vn -0.291339 0 0.952756 
vn 0.291339 0 0.952756 
vn 0.291339 0 0.952756 
vn 0.291339 0 0.952756 
vn 0.291339 0 0.952756 
vn 0 0.377953 0.929134 
vn 0 0.377953 0.929134 
vn 0 0.377953 0.929134 
vn 0 0.377953 0.929134 
vn 0 -0.377953 0.929134 
vn 0 -0.377953 0.929134 
vn 0 -0.377953 0.929134 
vn 0 -0.377953 0.929134 
vn -1 0 0 
vn -1 0 0 
vn -1 0 0 
vn -1 0 0 
vn 0.291339 0 -0.952756 
vn 0.291339 0 -0.952756 
vn 0 -1 0 
vn 0 1 0 
vn -1 0 0 
vn -1 0 0 
vn -1 0 0 
vn -1 0 0 
vn -0.952756 0 -0.291339 
vn -0.952756 0 -0.291339 
vn -0.952756 0 -0.291339 
vn -0.952756 0 -0.291339 
vn -0.929134 0.377953 0 
vn -0.929134 0.377953 0 
vn -0.929134 0.377953 0 
vn -0.929134 0.377953 0 
vn -0.929134 -0.377953 0 
vn -0.929134 -0.377953 0 
vn -0.929134 -0.377953 0 
vn -0.929134 -0.377953 0 
vn -0.952756 0 0.291339 
vn -0.952756 0 0.291339 
vn -0.952756 0 0.291339 
vn -0.952756 0 0.291339 
vn -0.291339 0 -0.952756 
vn 0.291339 0 -0.952756 
vn 0 -1 0 
vn 0 -1 0 
vn 0 -1 0 
vn 0 -1 0 
vn 0 -1 0 
vn 0 -1 0 
vn 0 -1 0 
vn 0 -1 0 
vn 0 0 -1 
vn 0 0 -1 
vn 0 0 -1 
vn 0 0 -1 
vn -0.291339 0 -0.952756 
vn -0.291339 0 -0.952756 
vn -0.291339 0 -0.952756 
vn -0.291339 0 -0.952756 
vn 0.291339 0 -0.952756 
vn 0.291339 0 -0.952756 
vn 0.291339 0 -0.952756 
vn 0.291339 0 -0.952756 
vn 0 0.377953 -0.929134 
vn 0 0.377953 -0.929134 
vn 0 0.377953 -0.929134 
vn 0 0.377953 -0.929134 
vn 0 -0.377953 -0.929134 
vn 0 -0.377953 -0.929134 
vn 0 -0.377953 -0.929134 
vn 0 -0.377953 -0.929134 

vt 0.995317 0.405308 
vt 0.554066 0.405308 
vt 0.995317 0.0453082 
vt 0.554066 0.0453082 
vt 1.07469 0.465308 
vt 1.07469 -0.0146918 
vt 0.474692 -0.0146918 
vt 0.474692 0.465308 
vt 0.474692 0.405308 
vt 0.49891 0.0453082 
vt 0.49891 0.405308 
vt 0.474692 0.0453082 
vt 0.554066 0.0453082 
vt 0.554066 0.405308 
vt 0.474692 0.465308 
vt 0.474692 -0.0146918 
vt 0.474692 -0.0146918 
vt 1.07469 -0.0146918 
vt 0.995317 0.0453082 
vt 0.554066 0.0453082 
vt 1.07469 0.465308 
vt 0.554066 0.405308 
vt 0.995317 0.405308 
vt 0.474692 0.465308 
vt 1.07469 -0.0146918 
vt 1.07469 0.465308 
vt 0.995317 0.405308 
vt 0.995317 0.0453082 
vt 0.474692 -0.0746918 
vt 1.07469 -0.0746918 
vt 1.07469 -0.0746918 
vt 1.07469 0.525308 
vt 0.474692 -0.0746918 
vt 0.474692 0.525308 
vt 0.554066 0.50109 
vt 0.995317 0.50109 
vt 0.995317 0.525308 
vt 0.554066 0.525308 
vt 0.554066 0.0453082 
vt 0.995317 0.0453082 
vt 0.554066 0.405308 
vt 0.995317 0.405308 
vt 1.07469 -0.0146918 
vt 0.474692 -0.0146918 
vt 0.474692 0.465308 
vt 1.07469 0.465308 
vt 1.07469 -0.0146918 
vt 0.995317 0.405308 
vt 0.995317 0.0453082 
vt 1.07469 0.465308 
vt 0.474692 0.465308 
vt 0.474692 -0.0146918 
vt 0.554066 0.0453082 
vt 0.554066 0.405308 
vt 0.474692 -0.0146918 
vt 1.07469 -0.0146918 
vt 0.995317 0.0453082 
vt 0.554066 0.0453082 
vt 1.07469 0.465308 
vt 0.474692 0.465308 
vt 0.554066 0.405308 
vt 0.995317 0.405308 
vt 0.554066 0.405308 
vt 0.554066 0.0453082 
vt 0.995317 0.0453082 
vt 0.995317 0.405308 
vt 0.474692 -0.0146918 
vt 0.474692 0.465308 
vt 1.07469 -0.0146918 
vt 1.07469 0.465308 
vt 1.07469 0.0453082 
vt 1.05047 0.405308 
vt 1.05047 0.0453082 
vt 1.07469 0.405308 
vt 0.995317 0.405308 
vt 0.995317 0.0453082 
vt 1.07469 -0.0146918 
vt 1.07469 0.465308 
vt 0.474692 -0.0146918 
vt 0.995317 0.0453082 
vt 0.554066 0.0453082 
vt 1.07469 -0.0146918 
vt 1.07469 0.465308 
vt 0.474692 0.465308 
vt 0.554066 0.405308 
vt 0.995317 0.405308 
vt 0.474692 0.465308 
vt 0.474692 -0.0146918 
vt 0.554066 0.0453082 
vt 0.554066 0.405308 
vt 1.07469 -0.0746918 
vt 0.474692 -0.0746918 
vt 0.474692 -0.0746918 
vt 1.07469 -0.0746918 
vt 1.07469 0.525308 
vt 0.474692 0.525308 
vt 0.554066 0.50109 
vt 0.995317 0.50109 
vt 0.995317 0.525308 
vt 0.554066 0.525308 
vt 0.554066 0.405308 
vt 0.995317 0.0453082 
vt 0.995317 0.405308 
vt 0.554066 0.0453082 
vt 0.474692 0.465308 
vt 0.554066 0.0453082 
vt 0.554066 0.405308 
vt 0.474692 -0.0146918 
vt 1.07469 -0.0146918 
vt 1.07469 0.465308 
vt 0.995317 0.405308 
vt 0.995317 0.0453082 
vt 0.474692 -0.0146918 
vt 1.07469 -0.0146918 
vt 0.995317 0.0453082 
vt 0.554066 0.0453082 
vt 1.07469 0.465308 
vt 0.474692 0.465308 
vt 0.554066 0.405308 
vt 0.995317 0.405308 

usemtl Handle1Mtl

f 1/1/1 2/2/2 3/3/3 
f 3/3/3 2/2/2 4/4/4 
f 9/9/9 10/10/10 11/11/11 
f 10/10/10 9/9/9 12/12/12 
f 13/13/13 14/14/14 15/15/15 
f 13/13/13 15/15/15 16/16/16 
f 17/17/17 18/18/18 19/19/19 
f 17/17/17 19/19/19 20/20/20 
f 21/21/21 22/22/22 23/23/23 
f 21/21/21 24/24/24 22/22/22 
f 25/25/25 26/26/26 27/27/27 
f 25/25/25 27/27/27 28/28/28 
f 31/31/31 32/32/32 33/33/33 
f 33/33/33 32/32/32 34/34/34 
f 35/35/35 36/36/36 37/37/37 
f 35/35/35 37/37/37 38/38/38 
f 39/39/39 40/40/40 41/41/41 
f 40/40/40 42/42/42 41/41/41 
f 47/47/47 48/48/48 49/49/49 
f 47/47/47 50/50/50 48/48/48 
f 51/51/51 52/52/52 53/53/53 
f 51/51/51 53/53/53 54/54/54 
f 55/55/55 56/56/56 57/57/57 
f 55/55/55 57/57/57 58/58/58 
f 59/59/59 60/60/60 61/61/61 
f 59/59/59 61/61/61 62/62/62 
f 63/63/63 64/64/64 65/65/65 
f 63/63/63 65/65/65 66/66/66 
f 71/71/71 72/72/72 73/73/73 
f 72/72/72 71/71/71 74/74/74 
f 75/75/75 76/76/76 77/77/77 
f 75/75/75 77/77/77 78/78/78 
f 79/79/79 80/80/80 81/81/81 
f 79/79/79 82/82/82 80/80/80 
f 83/83/83 84/84/84 85/85/85 
f 83/83/83 85/85/85 86/86/86 
f 87/87/87 88/88/88 89/89/89 
f 87/87/87 89/89/89 90/90/90 
f 93/93/93 94/94/94 95/95/95 
f 93/93/93 95/95/95 96/96/96 
f 97/97/97 98/98/98 99/99/99 
f 97/97/97 99/99/99 100/100/100 
f 101/101/101 102/102/102 103/103/103 
f 102/102/102 101/101/101 104/104/104 
f 105/105/105 106/106/106 107/107/107 
f 105/105/105 108/108/108 106/106/106 
f 109/109/109 110/110/110 111/111/111 
f 109/109/109 111/111/111 112/112/112 
f 113/113/113 114/114/114 115/115/115 
f 113/113/113 115/115/115 116/116/116 
f 117/117/117 118/118/118 119/119/119 
f 117/117/117 119/119/119 120/120/120 

