# This file is brought to you by Roblox Corporation
# Generated by Roblox Studio

mtllib DoorB.mtl

g Glass1

v -14.8472 4.69429 -38.8314 
v -14.2623 1.84247 -36.9573 
v -14.2623 1.84247 -39.7148 
v -14.8472 4.69429 -36.9573 
v -15.0373 4.69429 -36.9573 
v -14.8472 4.69429 -38.8314 
v -15.0373 4.69429 -38.8314 
v -14.8472 4.69429 -36.9573 
v -15.0373 4.69429 -36.9573 
v -14.4524 1.84247 -36.9573 
v -14.8472 4.69429 -36.9573 
v -14.2623 1.84247 -36.9573 
v -15.0373 4.69429 -38.8314 
v -14.4524 1.84247 -36.9573 
v -15.0373 4.69429 -36.9573 
v -14.4524 1.84247 -39.7148 
v -14.4524 1.84247 -36.9573 
v -14.4524 1.84247 -39.7148 
v -14.2623 1.84247 -39.7148 
v -14.2623 1.84247 -36.9573 
v -14.8472 4.69429 -38.8314 
v -14.4524 1.84247 -39.7148 
v -15.0373 4.69429 -38.8314 
v -14.2623 1.84247 -39.7148 

vn 0.976378 0.204724 0 
vn 0.976378 0.204724 0 
vn 0.976378 0.204724 0 
vn 0.976378 0.204724 0 
vn 0 1 0 
vn 0 1 0 
vn 0 1 0 
vn 0 1 0 
vn 0 0 1 
vn 0 0 1 
vn 0 0 1 
vn 0 0 1 
vn -0.976378 -0.204724 0 
vn -0.976378 -0.204724 0 
vn -0.976378 -0.204724 0 
vn -0.976378 -0.204724 0 
vn 0 -1 0 
vn 0 -1 0 
vn 0 -1 0 
vn 0 -1 0 
vn 0 0.299213 -0.952756 
vn 0 0.299213 -0.952756 
vn 0 0.299213 -0.952756 
vn 0 0.299213 -0.952756 

vt 3.15287 -0.138625 
vt 1.27873 -2.99045 
vt 4.03628 -2.99045 
vt 1.27873 -0.138625 
vt 3.04499 -0.185761 
vt 2.8549 -2.0599 
vt 3.04499 -2.0599 
vt 2.8549 -0.185761 
vt 2.27002 -0.138625 
vt 2.8549 -2.99045 
vt 2.46011 -0.138625 
vt 3.04499 -2.99045 
vt 2.16214 -0.138625 
vt 4.03628 -2.99045 
vt 4.03628 -0.138625 
vt 1.27873 -2.99045 
vt 2.8549 -0.185761 
vt 2.8549 -2.94331 
vt 3.04499 -2.94331 
vt 3.04499 -0.185761 
vt 2.8549 -0.138625 
vt 2.46011 -2.99045 
vt 3.04499 -0.138625 
vt 2.27002 -2.99045 

usemtl Glass1Mtl

f 1/1/1 2/2/2 3/3/3 
f 2/2/2 1/1/1 4/4/4 
f 5/5/5 6/6/6 7/7/7 
f 6/6/6 5/5/5 8/8/8 
f 9/9/9 10/10/10 11/11/11 
f 12/12/12 11/11/11 10/10/10 
f 13/13/13 14/14/14 15/15/15 
f 14/14/14 13/13/13 16/16/16 
f 17/17/17 18/18/18 19/19/19 
f 19/19/19 20/20/20 17/17/17 
f 21/21/21 22/22/22 23/23/23 
f 22/22/22 21/21/21 24/24/24 

g Door1

v -14.2093 0.0656099 -36.8134 
v -14.2093 1.84212 -36.9551 
v -14.2093 1.84212 -36.8134 
v -14.2093 1.84212 -39.7126 
v -14.2093 0.0656099 -39.8587 
v -14.2093 1.84212 -39.8587 
v -14.8211 4.82516 -38.9517 
v -14.8211 4.82516 -36.8134 
v -14.7942 4.69394 -36.9551 
v -14.2093 1.84212 -36.8134 
v -14.2093 1.84212 -36.9551 
v -14.7942 4.69394 -38.8292 
v -14.2093 1.84212 -39.8587 
v -14.2093 1.84212 -39.7126 
v -15.1112 4.82516 -38.9517 
v -15.1112 4.82516 -36.8134 
v -14.8211 4.82516 -38.9517 
v -14.8211 4.82516 -36.8134 
v -14.4994 1.84212 -36.9551 
v -14.2093 1.84212 -39.7126 
v -14.4994 1.84212 -39.7126 
v -14.2093 1.84212 -36.9551 
v -14.4994 1.84212 -36.8134 
v -14.4994 0.0656099 -36.8134 
v -14.2093 0.0656099 -36.8134 
v -14.2093 1.84212 -36.8134 
v -14.8211 4.82516 -36.8134 
v -15.1112 4.82516 -36.8134 
v -14.4994 1.84212 -39.7126 
v -14.7942 4.69394 -38.8292 
v -15.0843 4.69394 -38.8292 
v -14.2093 1.84212 -39.7126 
v -15.1112 4.82516 -38.9517 
v -15.0843 4.69394 -36.9551 
v -15.1112 4.82516 -36.8134 
v -14.4994 1.84212 -36.8134 
v -14.4994 1.84212 -36.9551 
v -15.0843 4.69394 -38.8292 
v -14.4994 1.84212 -39.8587 
v -14.4994 1.84212 -39.7126 
v -14.4994 0.0656099 -39.8587 
v -14.4994 1.84212 -39.7126 
v -14.4994 1.84212 -39.8587 
v -14.4994 0.0656099 -36.8134 
v -14.4994 1.84212 -36.9551 
v -14.4994 1.84212 -36.8134 
v -14.2093 0.0656099 -39.8587 
v -14.2093 0.0656099 -36.8134 
v -14.4994 0.0656099 -39.8587 
v -14.4994 0.0656099 -36.8134 
v -15.0843 4.69394 -36.9551 
v -15.0843 4.69394 -38.8292 
v -14.7942 4.69394 -38.8292 
v -14.7942 4.69394 -36.9551 
v -14.2093 1.84212 -39.8587 
v -14.2093 0.0656099 -39.8587 
v -14.4994 1.84212 -39.8587 
v -14.4994 0.0656099 -39.8587 
v -14.8211 4.82516 -38.9517 
v -14.4994 1.84212 -39.8587 
v -15.1112 4.82516 -38.9517 
v -14.2093 1.84212 -39.8587 
v -14.4994 1.84212 -36.9551 
v -15.0843 4.69394 -36.9551 
v -14.7942 4.69394 -36.9551 
v -14.2093 1.84212 -36.9551 

vn 1 0 0 
vn 1 0 0 
vn 1 0 0 
vn 1 0 0 
vn 1 0 0 
vn 1 0 0 
vn 0.976378 0.204724 0 
vn 0.976378 0.204724 0 
vn 0.976378 0.204724 0 
vn 0.976378 0.204724 0 
vn 0.976378 0.204724 0 
vn 0.976378 0.204724 0 
vn 0.976378 0.204724 0 
vn 0.976378 0.204724 0 
vn 0 1 0 
vn 0 1 0 
vn 0 1 0 
vn 0 1 0 
vn 0 1 0 
vn 0 1 0 
vn 0 1 0 
vn 0 1 0 
vn 0 0 1 
vn 0 0 1 
vn 0 0 1 
vn 0 0 1 
vn 0 0 1 
vn 0 0 1 
vn 0 -0.299213 0.952756 
vn 0 -0.299213 0.952756 
vn 0 -0.299213 0.952756 
vn 0 -0.299213 0.952756 
vn -0.976378 -0.204724 0 
vn -0.976378 -0.204724 0 
vn -0.976378 -0.204724 0 
vn -0.976378 -0.204724 0 
vn -0.976378 -0.204724 0 
vn -0.976378 -0.204724 0 
vn -0.976378 -0.204724 0 
vn -0.976378 -0.204724 0 
vn -1 0 0 
vn -1 0 0 
vn -1 0 0 
vn -1 0 0 
vn -1 0 0 
vn -1 0 0 
vn 0 -1 0 
vn 0 -1 0 
vn 0 -1 0 
vn 0 -1 0 
vn 0 -1 0 
vn 0 -1 0 
vn 0 -1 0 
vn 0 -1 0 
vn 0 0 -1 
vn 0 0 -1 
vn 0 0 -1 
vn 0 0 -1 
vn 0 0.291339 -0.96063 
vn 0 0.291339 -0.96063 
vn 0 0.291339 -0.96063 
vn 0 0.291339 -0.96063 
vn 0 0 -1 
vn 0 0 -1 
vn 0 0 -1 
vn 0 0 -1 

vt -3.71454 -3.37524 
vt -3.68619 -3.01993 
vt -3.71454 -3.01993 
vt -3.13468 -3.01993 
vt -3.10547 -3.37524 
vt -3.10547 -3.01993 
vt -3.28687 -2.42333 
vt -3.71454 -2.42333 
vt -3.68619 -2.44957 
vt -3.71454 -3.01993 
vt -3.68619 -3.01993 
vt -3.31136 -2.44957 
vt -3.10547 -3.01993 
vt -3.13468 -3.01993 
vt -3.31982 -3.02241 
vt -3.31982 -2.59475 
vt -3.37783 -3.02241 
vt -3.37783 -2.59475 
vt -3.44217 -2.62309 
vt -3.50019 -3.1746 
vt -3.44217 -3.1746 
vt -3.50019 -2.62309 
vt -3.37783 -3.01993 
vt -3.37783 -3.37524 
vt -3.31982 -3.37524 
vt -3.31982 -3.01993 
vt -3.44217 -2.42333 
vt -3.50019 -2.42333 
vt -3.37783 -3.01993 
vt -3.43679 -2.44957 
vt -3.49481 -2.44957 
vt -3.31982 -3.01993 
vt -3.53314 -2.42333 
vt -3.13382 -2.44957 
vt -3.10547 -2.42333 
vt -3.10547 -3.01993 
vt -3.13382 -3.01993 
vt -3.50864 -2.44957 
vt -3.71454 -3.01993 
vt -3.68533 -3.01993 
vt -3.71454 -3.37524 
vt -3.68533 -3.01993 
vt -3.71454 -3.01993 
vt -3.10547 -3.37524 
vt -3.13382 -3.01993 
vt -3.10547 -3.01993 
vt -3.31982 -3.20381 
vt -3.31982 -2.59475 
vt -3.37783 -3.20381 
vt -3.37783 -2.59475 
vt -3.49481 -2.62309 
vt -3.49481 -2.99792 
vt -3.43679 -2.99792 
vt -3.43679 -2.62309 
vt -3.50019 -3.01993 
vt -3.50019 -3.37524 
vt -3.44217 -3.01993 
vt -3.44217 -3.37524 
vt -3.37783 -2.42333 
vt -3.44217 -3.01993 
vt -3.31982 -2.42333 
vt -3.50019 -3.01993 
vt -3.44217 -3.01993 
vt -3.3252 -2.44957 
vt -3.38322 -2.44957 
vt -3.50019 -3.01993 

usemtl Door1Mtl

f 25/25/25 26/26/26 27/27/27 
f 25/25/25 28/28/28 26/26/26 
f 28/28/28 25/25/25 29/29/29 
f 28/28/28 29/29/29 30/30/30 
f 31/31/31 32/32/32 33/33/33 
f 34/34/34 33/33/33 32/32/32 
f 33/33/33 34/34/34 35/35/35 
f 31/31/31 33/33/33 36/36/36 
f 36/36/36 37/37/37 31/31/31 
f 37/37/37 36/36/36 38/38/38 
f 39/39/39 40/40/40 41/41/41 
f 41/41/41 40/40/40 42/42/42 
f 43/43/43 44/44/44 45/45/45 
f 44/44/44 43/43/43 46/46/46 
f 47/47/47 48/48/48 49/49/49 
f 49/49/49 50/50/50 47/47/47 
f 50/50/50 51/51/51 47/47/47 
f 47/47/47 51/51/51 52/52/52 
f 53/53/53 54/54/54 55/55/55 
f 54/54/54 53/53/53 56/56/56 
f 57/57/57 58/58/58 59/59/59 
f 58/58/58 60/60/60 59/59/59 
f 58/58/58 61/61/61 60/60/60 
f 58/58/58 57/57/57 62/62/62 
f 63/63/63 62/62/62 57/57/57 
f 62/62/62 63/63/63 64/64/64 
f 65/65/65 66/66/66 67/67/67 
f 68/68/68 66/66/66 65/65/65 
f 66/66/66 68/68/68 69/69/69 
f 69/69/69 68/68/68 70/70/70 
f 71/71/71 72/72/72 73/73/73 
f 73/73/73 72/72/72 74/74/74 
f 75/75/75 76/76/76 77/77/77 
f 77/77/77 78/78/78 75/75/75 
f 79/79/79 80/80/80 81/81/81 
f 81/81/81 80/80/80 82/82/82 
f 83/83/83 84/84/84 85/85/85 
f 84/84/84 83/83/83 86/86/86 
f 87/87/87 88/88/88 89/89/89 
f 89/89/89 90/90/90 87/87/87 

