# This file is brought to you by Roblox Corporation
# Generated by Roblox Studio

mtllib Detacher.mtl

g Thingy1

v -19.5203 2.91538 -23.476 
v -19.5203 2.91538 -23.196 
v -19.5203 2.39538 -23.476 
v -19.5203 2.39538 -23.196 
v -19.8003 2.91538 -23.196 
v -19.5203 2.91538 -23.196 
v -19.8003 2.91538 -23.476 
v -19.5203 2.91538 -23.476 
v -19.5203 2.91538 -23.196 
v -19.8003 2.91538 -23.196 
v -19.5203 2.39538 -23.196 
v -19.8003 2.39538 -23.196 
v -19.8003 2.91538 -23.196 
v -19.8003 2.91538 -23.476 
v -19.8003 2.39538 -23.196 
v -19.8003 2.39538 -23.476 
v -19.8003 2.39538 -23.476 
v -19.5203 2.39538 -23.476 
v -19.8003 2.39538 -23.196 
v -19.5203 2.39538 -23.196 
v -19.8003 2.91538 -23.476 
v -19.5203 2.91538 -23.476 
v -19.8003 2.39538 -23.476 
v -19.5203 2.39538 -23.476 

vn 1 0 0 
vn 1 0 0 
vn 1 0 0 
vn 1 0 0 
vn 0 1 0 
vn 0 1 0 
vn 0 1 0 
vn 0 1 0 
vn 0 0 1 
vn 0 0 1 
vn 0 0 1 
vn 0 0 1 
vn -1 0 0 
vn -1 0 0 
vn -1 0 0 
vn -1 0 0 
vn 0 -1 0 
vn 0 -1 0 
vn 0 -1 0 
vn 0 -1 0 
vn 0 0 -1 
vn 0 0 -1 
vn 0 0 -1 
vn 0 0 -1 

vt 0.533338 1.1169 
vt 0.253338 1.1169 
vt 0.533338 0.596901 
vt 0.253338 0.596901 
vt 0.533338 1.1169 
vt 0.253338 1.1169 
vt 0.533338 0.836901 
vt 0.253338 0.836901 
vt 0.533338 1.1169 
vt 0.253338 1.1169 
vt 0.533338 0.596901 
vt 0.253338 0.596901 
vt 0.533338 1.1169 
vt 0.253338 1.1169 
vt 0.533338 0.596901 
vt 0.253338 0.596901 
vt 0.533338 1.1169 
vt 0.253338 1.1169 
vt 0.533338 0.836901 
vt 0.253338 0.836901 
vt 0.533338 1.1169 
vt 0.253338 1.1169 
vt 0.533338 0.596901 
vt 0.253338 0.596901 

usemtl Thingy1Mtl

f 1/1/1 2/2/2 3/3/3 
f 3/3/3 2/2/2 4/4/4 
f 5/5/5 6/6/6 7/7/7 
f 7/7/7 6/6/6 8/8/8 
f 9/9/9 10/10/10 11/11/11 
f 11/11/11 10/10/10 12/12/12 
f 13/13/13 14/14/14 15/15/15 
f 15/15/15 14/14/14 16/16/16 
f 17/17/17 18/18/18 19/19/19 
f 19/19/19 18/18/18 20/20/20 
f 21/21/21 22/22/22 23/23/23 
f 23/23/23 22/22/22 24/24/24 

g Handle1

v -19.3603 2.49538 -23.576 
v -19.4203 2.34538 -23.636 
v -19.4203 2.49538 -23.636 
v -19.3603 2.34538 -23.576 
v -19.3903 2.54538 -23.546 
v -19.4503 2.49538 -23.606 
v -19.4503 2.54538 -23.606 
v -19.3903 2.49538 -23.546 
v -19.3603 2.49538 -23.096 
v -19.3603 2.34538 -23.576 
v -19.3603 2.49538 -23.576 
v -19.3603 2.34538 -23.096 
v -19.3903 2.54538 -23.126 
v -19.3903 2.49538 -23.546 
v -19.3903 2.54538 -23.546 
v -19.3903 2.49538 -23.126 
v -19.8703 2.54538 -23.066 
v -19.4503 2.54538 -23.066 
v -19.4503 2.54538 -23.606 
v -19.3903 2.54538 -23.126 
v -19.3903 2.54538 -23.546 
v -19.9303 2.54538 -23.126 
v -19.8703 2.54538 -23.606 
v -19.9303 2.54538 -23.546 
v -19.9003 2.49538 -23.036 
v -19.4203 2.49538 -23.036 
v -19.4203 2.49538 -23.636 
v -19.3603 2.49538 -23.096 
v -19.3603 2.49538 -23.576 
v -19.9603 2.49538 -23.096 
v -19.9003 2.49538 -23.636 
v -19.9603 2.49538 -23.576 
v -19.9003 2.49538 -23.036 
v -19.9603 2.49538 -23.096 
v -19.9003 2.34538 -23.036 
v -19.9603 2.34538 -23.096 
v -19.3603 2.49538 -23.096 
v -19.4203 2.49538 -23.036 
v -19.3603 2.34538 -23.096 
v -19.4203 2.34538 -23.036 
v -19.9303 2.49538 -23.126 
v -19.8703 2.49538 -23.066 
v -19.9303 2.54538 -23.126 
v -19.8703 2.54538 -23.066 
v -19.4503 2.49538 -23.066 
v -19.3903 2.49538 -23.126 
v -19.4503 2.54538 -23.066 
v -19.3903 2.54538 -23.126 
v -19.9003 2.49538 -23.036 
v -19.4203 2.34538 -23.036 
v -19.4203 2.49538 -23.036 
v -19.9003 2.34538 -23.036 
v -19.8703 2.54538 -23.066 
v -19.4503 2.49538 -23.066 
v -19.4503 2.54538 -23.066 
v -19.8703 2.49538 -23.066 
v -19.9603 2.49538 -23.576 
v -19.9003 2.49538 -23.636 
v -19.9603 2.34538 -23.576 
v -19.9003 2.34538 -23.636 
v -19.8703 2.49538 -23.606 
v -19.9303 2.49538 -23.546 
v -19.8703 2.54538 -23.606 
v -19.9303 2.54538 -23.546 
v -19.9603 2.49538 -23.576 
v -19.9603 2.34538 -23.096 
v -19.9603 2.49538 -23.096 
v -19.9603 2.34538 -23.576 
v -19.9303 2.54538 -23.546 
v -19.9303 2.49538 -23.126 
v -19.9303 2.54538 -23.126 
v -19.9303 2.49538 -23.546 
v -19.9003 2.34538 -23.636 
v -19.4203 2.34538 -23.636 
v -19.3603 2.34538 -23.096 
v -19.3603 2.34538 -23.576 
v -19.4203 2.34538 -23.036 
v -19.9003 2.34538 -23.036 
v -19.9603 2.34538 -23.096 
v -19.9603 2.34538 -23.576 
v -19.4203 2.49538 -23.636 
v -19.9003 2.34538 -23.636 
v -19.9003 2.49538 -23.636 
v -19.4203 2.34538 -23.636 
v -19.4503 2.54538 -23.606 
v -19.8703 2.49538 -23.606 
v -19.8703 2.54538 -23.606 
v -19.4503 2.49538 -23.606 

vn 0.708661 0 -0.708661 
vn 0.708661 0 -0.708661 
vn 0.708661 0 -0.708661 
vn 0.708661 0 -0.708661 
vn 0.708661 0 -0.708661 
vn 0.708661 0 -0.708661 
vn 0.708661 0 -0.708661 
vn 0.708661 0 -0.708661 
vn 1 0 0 
vn 1 0 0 
vn 1 0 0 
vn 1 0 0 
vn 1 0 0 
vn 1 0 0 
vn 1 0 0 
vn 1 0 0 
vn 0 1 0 
vn 0 1 0 
vn 0 1 0 
vn 0 1 0 
vn 0 1 0 
vn 0 1 0 
vn 0 1 0 
vn 0 1 0 
vn 0 1 0 
vn 0 1 0 
vn 0 1 0 
vn 0 1 0 
vn 0 1 0 
vn 0 1 0 
vn 0 1 0 
vn 0 1 0 
vn -0.708661 0 0.708661 
vn -0.708661 0 0.708661 
vn -0.708661 0 0.708661 
vn -0.708661 0 0.708661 
vn 0.708661 0 0.708661 
vn 0.708661 0 0.708661 
vn 0.708661 0 0.708661 
vn 0.708661 0 0.708661 
vn -0.708661 0 0.708661 
vn -0.708661 0 0.708661 
vn -0.708661 0 0.708661 
vn -0.708661 0 0.708661 
vn 0.708661 0 0.708661 
vn 0.708661 0 0.708661 
vn 0.708661 0 0.708661 
vn 0.708661 0 0.708661 
vn 0 0 1 
vn 0 0 1 
vn 0 0 1 
vn 0 0 1 
vn 0 0 1 
vn 0 0 1 
vn 0 0 1 
vn 0 0 1 
vn -0.708661 0 -0.708661 
vn -0.708661 0 -0.708661 
vn -0.708661 0 -0.708661 
vn -0.708661 0 -0.708661 
vn -0.708661 0 -0.708661 
vn -0.708661 0 -0.708661 
vn -0.708661 0 -0.708661 
vn -0.708661 0 -0.708661 
vn -1 0 0 
vn -1 0 0 
vn -1 0 0 
vn -1 0 0 
vn -1 0 0 
vn -1 0 0 
vn -1 0 0 
vn -1 0 0 
vn 0 -1 0 
vn 0 -1 0 
vn 0 -1 0 
vn 0 -1 0 
vn 0 -1 0 
vn 0 -1 0 
vn 0 -1 0 
vn 0 -1 0 
vn 0 0 -1 
vn 0 0 -1 
vn 0 0 -1 
vn 0 0 -1 
vn 0 0 -1 
vn 0 0 -1 
vn 0 0 -1 
vn 0 0 -1 

vt -0.0445856 0.795938 
vt 0.0334144 0.600938 
vt 0.0334144 0.795938 
vt -0.0445856 0.600938 
vt -0.0835856 0.860938 
vt -0.00558558 0.795938 
vt -0.00558558 0.860938 
vt -0.0835856 0.795938 
vt -0.668586 0.795938 
vt -0.0445856 0.600938 
vt -0.0445856 0.795938 
vt -0.668586 0.600938 
vt -0.629586 0.860938 
vt -0.0835856 0.795938 
vt -0.0835856 0.860938 
vt -0.629586 0.795938 
vt -0.0835856 1.08194 
vt -0.629586 1.08194 
vt -0.629586 0.379938 
vt -0.707586 1.00394 
vt -0.707586 0.457938 
vt -0.00558558 1.00394 
vt -0.0835856 0.379938 
vt -0.00558558 0.457938 
vt -0.0445856 1.12094 
vt -0.668586 1.12094 
vt -0.668586 0.340938 
vt -0.746586 1.04294 
vt -0.746586 0.418938 
vt 0.0334144 1.04294 
vt -0.0445856 0.340938 
vt 0.0334144 0.418938 
vt -0.668586 0.795938 
vt -0.746586 0.795938 
vt -0.668586 0.600938 
vt -0.746586 0.600938 
vt 0.0334144 0.795938 
vt -0.0445856 0.795938 
vt 0.0334144 0.600938 
vt -0.0445856 0.600938 
vt -0.707586 0.795938 
vt -0.629586 0.795938 
vt -0.707586 0.860938 
vt -0.629586 0.860938 
vt -0.0835856 0.795938 
vt -0.00558558 0.795938 
vt -0.0835856 0.860938 
vt -0.00558558 0.860938 
vt -0.668586 0.795938 
vt -0.0445856 0.600938 
vt -0.0445856 0.795938 
vt -0.668586 0.600938 
vt -0.629586 0.860938 
vt -0.0835856 0.795938 
vt -0.0835856 0.860938 
vt -0.629586 0.795938 
vt -0.668586 0.795938 
vt -0.746586 0.795938 
vt -0.668586 0.600938 
vt -0.746586 0.600938 
vt -0.707586 0.795938 
vt -0.629586 0.795938 
vt -0.707586 0.860938 
vt -0.629586 0.860938 
vt -0.668586 0.795938 
vt -0.0445855 0.600938 
vt -0.0445855 0.795938 
vt -0.668586 0.600938 
vt -0.629586 0.860938 
vt -0.0835855 0.795938 
vt -0.0835855 0.860938 
vt -0.629586 0.795938 
vt -0.668586 0.340938 
vt -0.0445856 0.340938 
vt 0.0334144 1.04294 
vt 0.0334144 0.418938 
vt -0.0445856 1.12094 
vt -0.668586 1.12094 
vt -0.746586 1.04294 
vt -0.746586 0.418938 
vt -0.668586 0.795938 
vt -0.0445856 0.600938 
vt -0.0445856 0.795938 
vt -0.668586 0.600938 
vt -0.629586 0.860938 
vt -0.0835856 0.795938 
vt -0.0835856 0.860938 
vt -0.629586 0.795938 

usemtl Handle1Mtl

f 25/25/25 26/26/26 27/27/27 
f 26/26/26 25/25/25 28/28/28 
f 29/29/29 30/30/30 31/31/31 
f 30/30/30 29/29/29 32/32/32 
f 33/33/33 34/34/34 35/35/35 
f 34/34/34 33/33/33 36/36/36 
f 37/37/37 38/38/38 39/39/39 
f 38/38/38 37/37/37 40/40/40 
f 41/41/41 42/42/42 43/43/43 
f 43/43/43 42/42/42 44/44/44 
f 43/43/43 44/44/44 45/45/45 
f 43/43/43 46/46/46 41/41/41 
f 46/46/46 43/43/43 47/47/47 
f 46/46/46 47/47/47 48/48/48 
f 49/49/49 50/50/50 51/51/51 
f 51/51/51 50/50/50 52/52/52 
f 51/51/51 52/52/52 53/53/53 
f 51/51/51 54/54/54 49/49/49 
f 54/54/54 51/51/51 55/55/55 
f 54/54/54 55/55/55 56/56/56 
f 57/57/57 58/58/58 59/59/59 
f 58/58/58 60/60/60 59/59/59 
f 61/61/61 62/62/62 63/63/63 
f 62/62/62 64/64/64 63/63/63 
f 65/65/65 66/66/66 67/67/67 
f 68/68/68 67/67/67 66/66/66 
f 69/69/69 70/70/70 71/71/71 
f 72/72/72 71/71/71 70/70/70 
f 73/73/73 74/74/74 75/75/75 
f 74/74/74 73/73/73 76/76/76 
f 77/77/77 78/78/78 79/79/79 
f 78/78/78 77/77/77 80/80/80 
f 81/81/81 82/82/82 83/83/83 
f 82/82/82 84/84/84 83/83/83 
f 85/85/85 86/86/86 87/87/87 
f 88/88/88 87/87/87 86/86/86 
f 89/89/89 90/90/90 91/91/91 
f 90/90/90 89/89/89 92/92/92 
f 93/93/93 94/94/94 95/95/95 
f 94/94/94 93/93/93 96/96/96 
f 97/97/97 98/98/98 99/99/99 
f 99/99/99 98/98/98 100/100/100 
f 101/101/101 97/97/97 99/99/99 
f 97/97/97 101/101/101 102/102/102 
f 97/97/97 102/102/102 103/103/103 
f 97/97/97 103/103/103 104/104/104 
f 105/105/105 106/106/106 107/107/107 
f 106/106/106 105/105/105 108/108/108 
f 109/109/109 110/110/110 111/111/111 
f 110/110/110 109/109/109 112/112/112 

