# This file is brought to you by Roblox Corporation
# Generated by Roblox Studio

mtllib Pipes.mtl

g Pipes1

v -27.8581 2.40498 -58.2065 
v -27.928 2.28135 -58.2765 
v -27.928 2.40498 -58.2765 
v -27.8581 2.23813 -58.2065 
v -27.928 2.47224 -58.3338 
v -27.8581 2.56244 -58.3338 
v -27.8581 2.56244 -58.5355 
v -27.928 2.47224 -58.5355 
v -27.928 2.40498 -58.1366 
v -27.8581 2.56244 -58.3338 
v -27.928 2.65263 -58.3338 
v -27.928 2.65263 -58.5355 
v -27.8581 2.56244 -58.5355 
v -29.0821 2.65263 -58.5355 
v -29.0122 2.56244 -58.3338 
v -29.0122 2.56244 -58.5355 
v -29.0821 2.65263 -58.3338 
v -29.0821 2.40498 -58.1366 
v -29.0122 2.56244 -58.5355 
v -29.0821 2.47224 -58.3338 
v -29.0821 2.47224 -58.5355 
v -29.0122 2.56244 -58.3338 
v -29.0122 2.40498 -58.2065 
v -29.0821 2.40498 -58.2765 
v -29.0122 2.3291 -58.2065 
v -29.0821 2.28135 -58.2765 
v -30.2384 2.65263 -58.5355 
v -30.2384 2.65263 -58.3338 
v -30.1685 2.56244 -58.5355 
v -30.1685 2.56244 -58.3338 
v -30.2384 2.40498 -58.1366 
v -30.1685 2.56244 -58.5355 
v -30.1685 2.56244 -58.3338 
v -30.2384 2.47224 -58.5355 
v -30.2384 2.47224 -58.3338 
v -30.1685 2.40498 -58.2065 
v -30.2384 2.40498 -58.2765 
v -30.1685 2.3291 -58.2065 
v -30.2384 2.28135 -58.2765 
v -31.3925 2.40498 -58.1366 
v -31.3226 2.56244 -58.3338 
v -31.3925 2.65263 -58.3338 
v -31.3226 2.56244 -58.5355 
v -31.3925 2.65263 -58.5355 
v -31.3925 2.40498 -58.2765 
v -31.3226 2.3291 -58.2065 
v -31.3925 2.28135 -58.2765 
v -31.3226 2.40498 -58.2065 
v -31.3925 2.47224 -58.3338 
v -31.3226 2.56244 -58.3338 
v -31.3925 2.47224 -58.5355 
v -31.3226 2.56244 -58.5355 
v -31.4625 2.56244 -58.3338 
v -31.4625 2.56244 -58.5355 
v -27.8581 2.56244 -58.3338 
v -27.8581 2.56244 -58.5355 
v -30.3084 2.56244 -58.5355 
v -30.3084 2.56244 -58.3338 
v -29.0122 2.56244 -58.3338 
v -29.0122 2.56244 -58.5355 
v -30.1685 2.56244 -58.5355 
v -31.3226 2.56244 -58.5355 
v -29.1521 2.56244 -58.5355 
v -27.998 2.56244 -58.5355 
v -31.3925 2.28135 -58.1366 
v -29.6603 2.28135 -58.1366 
v -31.3226 2.3291 -58.2065 
v -29.6603 2.3291 -58.2065 
v -27.998 2.3291 -58.2065 
v -27.928 2.28135 -58.1366 
v -31.3226 2.3291 -58.2065 
v -29.6603 2.28135 -58.2765 
v -31.3925 2.28135 -58.2765 
v -29.6603 2.3291 -58.2065 
v -27.998 2.3291 -58.2065 
v -27.928 2.28135 -58.2765 
v -31.4625 2.23813 -58.2065 
v -31.4625 2.56244 -58.3338 
v -27.8581 2.23813 -58.2065 
v -27.8581 2.56244 -58.3338 
v -31.4625 2.40498 -58.2065 
v -31.4625 2.23813 -58.2065 
v -31.3925 2.28135 -58.1366 
v -31.3925 2.40498 -58.1366 
v -31.4625 2.56244 -58.3338 
v -27.8581 2.23813 -58.2065 
v -27.8581 2.40498 -58.2065 
v -27.928 2.28135 -58.1366 
v -27.928 2.40498 -58.1366 
v -27.8581 2.56244 -58.3338 
v -30.3084 2.56244 -58.3338 
v -30.2384 2.40498 -58.1366 
v -30.3084 2.40498 -58.2065 
v -30.3084 2.3291 -58.2065 
v -30.2384 2.28135 -58.1366 
v -29.0122 2.56244 -58.3338 
v -29.0821 2.40498 -58.1366 
v -29.0122 2.40498 -58.2065 
v -29.0122 2.3291 -58.2065 
v -29.0821 2.28135 -58.1366 
v -29.6603 2.23813 -58.2065 
v -31.3226 2.3291 -58.2065 
v -27.998 2.3291 -58.2065 
v -30.1685 2.56244 -58.3338 
v -30.2384 2.40498 -58.1366 
v -30.1685 2.40498 -58.2065 
v -30.1685 2.3291 -58.2065 
v -30.2384 2.28135 -58.1366 
v -29.1521 2.56244 -58.3338 
v -29.0821 2.40498 -58.1366 
v -29.1521 2.40498 -58.2065 
v -29.1521 2.3291 -58.2065 
v -29.0821 2.28135 -58.1366 
v -31.3226 2.40498 -58.2065 
v -31.3925 2.40498 -58.1366 
v -31.3226 2.3291 -58.2065 
v -31.3925 2.28135 -58.1366 
v -31.3226 2.56244 -58.3338 
v -27.998 2.40498 -58.2065 
v -27.998 2.3291 -58.2065 
v -27.928 2.40498 -58.1366 
v -27.928 2.28135 -58.1366 
v -27.998 2.56244 -58.3338 
v -31.4625 2.40498 -58.2065 
v -31.3925 2.28135 -58.2765 
v -31.4625 2.23813 -58.2065 
v -31.3925 2.40498 -58.2765 
v -31.3925 2.47224 -58.3338 
v -31.4625 2.56244 -58.3338 
v -31.4625 2.56244 -58.5355 
v -31.3925 2.47224 -58.5355 
v -31.3925 2.40498 -58.1366 
v -31.4625 2.56244 -58.3338 
v -31.3925 2.65263 -58.3338 
v -31.3925 2.65263 -58.5355 
v -31.4625 2.56244 -58.5355 
v -30.3084 2.56244 -58.5355 
v -30.3084 2.56244 -58.3338 
v -30.2384 2.65263 -58.5355 
v -30.2384 2.65263 -58.3338 
v -30.2384 2.40498 -58.1366 
v -30.2384 2.47224 -58.5355 
v -30.2384 2.47224 -58.3338 
v -30.3084 2.56244 -58.5355 
v -30.3084 2.56244 -58.3338 
v -30.3084 2.40498 -58.2065 
v -30.2384 2.40498 -58.2765 
v -30.3084 2.3291 -58.2065 
v -30.2384 2.28135 -58.2765 
v -29.1521 2.56244 -58.5355 
v -29.0821 2.65263 -58.3338 
v -29.0821 2.65263 -58.5355 
v -29.1521 2.56244 -58.3338 
v -29.0821 2.40498 -58.1366 
v -29.0821 2.47224 -58.5355 
v -29.1521 2.56244 -58.3338 
v -29.1521 2.56244 -58.5355 
v -29.0821 2.47224 -58.3338 
v -29.1521 2.40498 -58.2065 
v -29.0821 2.40498 -58.2765 
v -29.1521 2.3291 -58.2065 
v -29.0821 2.28135 -58.2765 
v -27.928 2.40498 -58.1366 
v -27.998 2.56244 -58.3338 
v -27.928 2.65263 -58.3338 
v -27.998 2.56244 -58.5355 
v -27.928 2.65263 -58.5355 
v -27.928 2.40498 -58.2765 
v -27.998 2.3291 -58.2065 
v -27.998 2.40498 -58.2065 
v -27.928 2.28135 -58.2765 
v -27.928 2.47224 -58.3338 
v -27.998 2.56244 -58.3338 
v -27.928 2.47224 -58.5355 
v -27.998 2.56244 -58.5355 
v -31.4625 2.56244 -58.3338 
v -31.4625 2.56244 -58.5355 
v -27.8581 2.56244 -58.3338 
v -27.8581 2.56244 -58.5355 
v -30.3084 2.56244 -58.5355 
v -30.3084 2.56244 -58.3338 
v -29.0122 2.56244 -58.3338 
v -29.0122 2.56244 -58.5355 
v -30.1685 2.56244 -58.5355 
v -31.3226 2.56244 -58.5355 
v -29.1521 2.56244 -58.5355 
v -27.998 2.56244 -58.5355 
v -31.4625 2.23813 -58.2065 
v -29.6603 2.23813 -58.2065 
v -31.3925 2.28135 -58.1366 
v -29.6603 2.28135 -58.1366 
v -27.928 2.28135 -58.1366 
v -27.8581 2.23813 -58.2065 
v -29.6603 2.23813 -58.2065 
v -31.3925 2.28135 -58.2765 
v -29.6603 2.28135 -58.2765 
v -31.4625 2.23813 -58.2065 
v -27.928 2.28135 -58.2765 
v -27.8581 2.23813 -58.2065 
v -31.4625 2.23813 -58.2065 
v -31.4625 2.56244 -58.3338 
v -27.8581 2.23813 -58.2065 
v -27.8581 2.56244 -58.3338 
v -30.3084 2.56244 -58.3338 
v -30.3084 2.3291 -58.2065 
v -29.0122 2.56244 -58.3338 
v -29.0122 2.3291 -58.2065 
v -30.3084 2.56244 -58.5355 
v -30.1685 2.56244 -58.5355 
v -30.2384 2.47224 -58.5355 
v -30.2384 2.65263 -58.5355 
v -31.3925 2.47224 -58.5355 
v -31.4625 2.56244 -58.5355 
v -31.3226 2.56244 -58.5355 
v -31.3925 2.65263 -58.5355 
v -29.1521 2.56244 -58.5355 
v -29.0122 2.56244 -58.5355 
v -29.0821 2.47224 -58.5355 
v -29.0821 2.65263 -58.5355 
v -27.998 2.56244 -58.5355 
v -27.8581 2.56244 -58.5355 
v -27.928 2.47224 -58.5355 
v -27.928 2.65263 -58.5355 

vn 0.692913 -0.212598 -0.685039 
vn 0.708661 0 -0.708661 
vn 0.685039 -0.291339 -0.669291 
vn 0.708661 0 -0.708661 
vn 0.732283 -0.574803 -0.370079 
vn 0.76378 -0.598425 -0.23622 
vn 0.787402 -0.614173 0 
vn 0.787402 -0.614173 0 
vn 0.692913 0.212598 0.692913 
vn 0.732283 0.566929 0.377953 
vn 0.76378 0.598425 0.23622 
vn 0.787402 0.614173 0 
vn 0.787402 0.614173 0 
vn 0.787402 0.614173 0 
vn 0.732283 0.566929 0.377953 
vn 0.787402 0.614173 0 
vn 0.76378 0.598425 0.23622 
vn 0.692913 0.212598 0.692913 
vn 0.787402 -0.614173 0 
vn 0.732283 -0.574803 -0.370079 
vn 0.787402 -0.614173 0 
vn 0.76378 -0.598425 -0.23622 
vn 0.692913 -0.212598 -0.685039 
vn 0.685039 -0.291339 -0.669291 
vn 0.708661 0 -0.708661 
vn 0.708661 0 -0.708661 
vn 0.787402 0.614173 0 
vn 0.76378 0.598425 0.23622 
vn 0.787402 0.614173 0 
vn 0.732283 0.566929 0.377953 
vn 0.692913 0.212598 0.692913 
vn 0.787402 -0.614173 0 
vn 0.76378 -0.598425 -0.23622 
vn 0.787402 -0.614173 0 
vn 0.732283 -0.574803 -0.370079 
vn 0.692913 -0.212598 -0.685039 
vn 0.685039 -0.291339 -0.669291 
vn 0.708661 0 -0.708661 
vn 0.708661 0 -0.708661 
vn 0.692913 0.212598 0.692913 
vn 0.732283 0.566929 0.377953 
vn 0.76378 0.598425 0.23622 
vn 0.787402 0.614173 0 
vn 0.787402 0.614173 0 
vn 0.685039 -0.291339 -0.669291 
vn 0.708661 0 -0.708661 
vn 0.708661 0 -0.708661 
vn 0.692913 -0.212598 -0.685039 
vn 0.732283 -0.574803 -0.370079 
vn 0.76378 -0.598425 -0.23622 
vn 0.787402 -0.614173 0 
vn 0.787402 -0.614173 0 
vn -0.76378 -0.598425 -0.23622 
vn -0.787402 -0.614173 0 
vn 0.76378 -0.598425 -0.23622 
vn 0.787402 -0.614173 0 
vn -0.787402 0.614173 0 
vn -0.732283 0.566929 0.377953 
vn 0.732283 0.566929 0.377953 
vn 0.787402 0.614173 0 
vn 0 0 -1 
vn 0 0 -1 
vn 0 0 -1 
vn 0 0 -1 
vn 0 0.826772 0.566929 
vn 0 0.826772 0.566929 
vn 0 0.826772 0.566929 
vn 0 0.826772 0.566929 
vn 0 0.826772 0.566929 
vn 0 0.826772 0.566929 
vn 0 0.826772 -0.566929 
vn 0 0.826772 -0.566929 
vn 0 0.826772 -0.566929 
vn 0 0.826772 -0.566929 
vn 0 0.826772 -0.566929 
vn 0 0.826772 -0.566929 
vn -0.708661 0 -0.708661 
vn -0.76378 -0.598425 -0.23622 
vn 0.708661 0 -0.708661 
vn 0.76378 -0.598425 -0.23622 
vn -0.677165 0.283465 0.677165 
vn -0.708661 0 0.708661 
vn -0.708661 0 0.708661 
vn -0.692913 0.212598 0.692913 
vn -0.732283 0.566929 0.377953 
vn 0.708661 0 0.708661 
vn 0.677165 0.283465 0.677165 
vn 0.708661 0 0.708661 
vn 0.692913 0.212598 0.692913 
vn 0.732283 0.566929 0.377953 
vn -0.732283 0.566929 0.377953 
vn -0.692913 0.212598 0.692913 
vn -0.677165 0.283465 0.677165 
vn -0.708661 0 0.708661 
vn -0.708661 0 0.708661 
vn 0.732283 0.566929 0.377953 
vn 0.692913 0.212598 0.692913 
vn 0.677165 0.283465 0.677165 
vn 0.708661 0 0.708661 
vn 0.708661 0 0.708661 
vn 0 -0.850394 0.527559 
vn 0 0.826772 0.566929 
vn 0 0.826772 0.566929 
vn 0.732283 0.566929 0.377953 
vn 0.692913 0.212598 0.692913 
vn 0.677165 0.283465 0.677165 
vn 0.708661 0 0.708661 
vn 0.708661 0 0.708661 
vn -0.732283 0.566929 0.377953 
vn -0.692913 0.212598 0.692913 
vn -0.677165 0.283465 0.677165 
vn -0.708661 0 0.708661 
vn -0.708661 0 0.708661 
vn 0.677165 0.283465 0.677165 
vn 0.692913 0.212598 0.692913 
vn 0.708661 0 0.708661 
vn 0.708661 0 0.708661 
vn 0.732283 0.566929 0.377953 
vn -0.677165 0.283465 0.677165 
vn -0.708661 0 0.708661 
vn -0.692913 0.212598 0.692913 
vn -0.708661 0 0.708661 
vn -0.732283 0.566929 0.377953 
vn -0.692913 -0.212598 -0.685039 
vn -0.708661 0 -0.708661 
vn -0.708661 0 -0.708661 
vn -0.685039 -0.291339 -0.669291 
vn -0.732283 -0.574803 -0.370079 
vn -0.76378 -0.598425 -0.23622 
vn -0.787402 -0.614173 0 
vn -0.787402 -0.614173 0 
vn -0.692913 0.212598 0.692913 
vn -0.732283 0.566929 0.377953 
vn -0.76378 0.598425 0.23622 
vn -0.787402 0.614173 0 
vn -0.787402 0.614173 0 
vn -0.787402 0.614173 0 
vn -0.732283 0.566929 0.377953 
vn -0.787402 0.614173 0 
vn -0.76378 0.598425 0.23622 
vn -0.692913 0.212598 0.692913 
vn -0.787402 -0.614173 0 
vn -0.732283 -0.574803 -0.370079 
vn -0.787402 -0.614173 0 
vn -0.76378 -0.598425 -0.23622 
vn -0.692913 -0.212598 -0.685039 
vn -0.685039 -0.291339 -0.669291 
vn -0.708661 0 -0.708661 
vn -0.708661 0 -0.708661 
vn -0.787402 0.614173 0 
vn -0.76378 0.598425 0.23622 
vn -0.787402 0.614173 0 
vn -0.732283 0.566929 0.377953 
vn -0.692913 0.212598 0.692913 
vn -0.787402 -0.614173 0 
vn -0.76378 -0.598425 -0.23622 
vn -0.787402 -0.614173 0 
vn -0.732283 -0.574803 -0.370079 
vn -0.692913 -0.212598 -0.685039 
vn -0.685039 -0.291339 -0.669291 
vn -0.708661 0 -0.708661 
vn -0.708661 0 -0.708661 
vn -0.692913 0.212598 0.692913 
vn -0.732283 0.566929 0.377953 
vn -0.76378 0.598425 0.23622 
vn -0.787402 0.614173 0 
vn -0.787402 0.614173 0 
vn -0.685039 -0.291339 -0.669291 
vn -0.708661 0 -0.708661 
vn -0.692913 -0.212598 -0.685039 
vn -0.708661 0 -0.708661 
vn -0.732283 -0.574803 -0.370079 
vn -0.76378 -0.598425 -0.23622 
vn -0.787402 -0.614173 0 
vn -0.787402 -0.614173 0 
vn -0.76378 -0.598425 -0.23622 
vn -0.787402 -0.614173 0 
vn 0.76378 -0.598425 -0.23622 
vn 0.787402 -0.614173 0 
vn -0.787402 0.614173 0 
vn -0.732283 0.566929 0.377953 
vn 0.732283 0.566929 0.377953 
vn 0.787402 0.614173 0 
vn 0 0 -1 
vn 0 0 -1 
vn 0 0 -1 
vn 0 0 -1 
vn 0 -0.850394 0.527559 
vn 0 -0.850394 0.527559 
vn 0 -0.850394 0.527559 
vn 0 -0.850394 0.527559 
vn 0 -0.850394 0.527559 
vn 0 -0.850394 0.527559 
vn 0 -0.850394 -0.527559 
vn 0 -0.850394 -0.527559 
vn 0 -0.850394 -0.527559 
vn 0 -0.850394 -0.527559 
vn 0 -0.850394 -0.527559 
vn 0 -0.850394 -0.527559 
vn -0.708661 0 -0.708661 
vn -0.76378 -0.598425 -0.23622 
vn 0.708661 0 -0.708661 
vn 0.76378 -0.598425 -0.23622 
vn -0.732283 0.566929 0.377953 
vn -0.708661 0 0.708661 
vn 0.732283 0.566929 0.377953 
vn 0.708661 0 0.708661 
vn 0 0 -1 
vn 0 0 -1 
vn 0 0 -1 
vn 0 0 -1 
vn 0 0 -1 
vn 0 0 -1 
vn 0 0 -1 
vn 0 0 -1 
vn 0 0 -1 
vn 0 0 -1 
vn 0 0 -1 
vn 0 0 -1 
vn 0 0 -1 
vn 0 0 -1 
vn 0 0 -1 
vn 0 0 -1 

vt -0.344069 0.766511 
vt -0.330079 0.741785 
vt -0.330079 0.766511 
vt -0.344069 0.733142 
vt -0.318608 0.779964 
vt -0.318608 0.798003 
vt -0.278273 0.798003 
vt -0.278273 0.779964 
vt -0.358058 0.766511 
vt -0.318608 0.798003 
vt -0.318608 0.816042 
vt -0.278273 0.816042 
vt -0.278273 0.798003 
vt -0.278273 0.816042 
vt -0.318608 0.798003 
vt -0.278273 0.798003 
vt -0.318608 0.816042 
vt -0.358058 0.766511 
vt -0.278273 0.798003 
vt -0.318608 0.779964 
vt -0.278273 0.779964 
vt -0.318608 0.798003 
vt -0.344069 0.766511 
vt -0.330079 0.766511 
vt -0.344069 0.751336 
vt -0.330079 0.741785 
vt -0.278273 0.816042 
vt -0.318608 0.816042 
vt -0.278273 0.798003 
vt -0.318608 0.798003 
vt -0.358058 0.766511 
vt -0.278273 0.798003 
vt -0.318608 0.798003 
vt -0.278273 0.779964 
vt -0.318608 0.779964 
vt -0.344069 0.766511 
vt -0.330079 0.766511 
vt -0.344069 0.751335 
vt -0.330079 0.741785 
vt -0.358058 0.766511 
vt -0.318608 0.798003 
vt -0.318608 0.816042 
vt -0.278273 0.798003 
vt -0.278273 0.816042 
vt -0.330079 0.766511 
vt -0.344069 0.751335 
vt -0.330079 0.741785 
vt -0.344069 0.766511 
vt -0.318608 0.779964 
vt -0.318608 0.798003 
vt -0.278273 0.779964 
vt -0.278273 0.798003 
vt 0.0422781 0.775034 
vt 0.0422781 0.734699 
vt -0.678609 0.775034 
vt -0.678609 0.734699 
vt -0.188548 0.734699 
vt -0.188548 0.775034 
vt -0.447783 0.775034 
vt -0.447783 0.734699 
vt -0.216527 0.734699 
vt 0.0142993 0.734699 
vt -0.419804 0.734699 
vt -0.65063 0.734699 
vt 0.0282887 0.814484 
vt -0.318166 0.814484 
vt 0.0142993 0.800495 
vt -0.318166 0.800495 
vt -0.65063 0.800495 
vt -0.66462 0.814484 
vt 0.0142993 0.800495 
vt -0.318166 0.786506 
vt 0.0282887 0.786506 
vt -0.318166 0.800495 
vt -0.65063 0.800495 
vt -0.66462 0.786506 
vt -0.678609 0.733142 
vt -0.678609 0.798003 
vt 0.0422781 0.733142 
vt 0.0422781 0.798003 
vt -0.678609 0.766511 
vt -0.678609 0.733142 
vt -0.66462 0.741785 
vt -0.66462 0.766511 
vt -0.678609 0.798003 
vt 0.0422781 0.733142 
vt 0.0422781 0.766511 
vt 0.0282887 0.741785 
vt 0.0282887 0.766511 
vt 0.0422781 0.798003 
vt -0.447783 0.798003 
vt -0.433794 0.766511 
vt -0.447783 0.766511 
vt -0.447783 0.751336 
vt -0.433794 0.741785 
vt -0.188548 0.798003 
vt -0.202537 0.766511 
vt -0.188548 0.766511 
vt -0.188548 0.751336 
vt -0.202537 0.741785 
vt -0.318166 0.733142 
vt -0.65063 0.751335 
vt 0.0142993 0.751335 
vt -0.419804 0.798003 
vt -0.433794 0.766511 
vt -0.419804 0.766511 
vt -0.419804 0.751335 
vt -0.433794 0.741785 
vt -0.216527 0.798003 
vt -0.202537 0.766511 
vt -0.216527 0.766511 
vt -0.216527 0.751335 
vt -0.202537 0.741785 
vt -0.65063 0.766511 
vt -0.66462 0.766511 
vt -0.65063 0.751335 
vt -0.66462 0.741785 
vt -0.65063 0.798003 
vt 0.0142993 0.766511 
vt 0.0142993 0.751335 
vt 0.0282887 0.766511 
vt 0.0282887 0.741785 
vt 0.0142993 0.798003 
vt -0.292262 0.766511 
vt -0.306252 0.741785 
vt -0.292262 0.733142 
vt -0.306252 0.766511 
vt -0.317723 0.779964 
vt -0.317723 0.798003 
vt -0.358058 0.798003 
vt -0.358058 0.779964 
vt -0.278273 0.766511 
vt -0.317723 0.798003 
vt -0.317723 0.816042 
vt -0.358058 0.816042 
vt -0.358058 0.798003 
vt -0.358058 0.798003 
vt -0.317723 0.798003 
vt -0.358058 0.816042 
vt -0.317723 0.816042 
vt -0.278273 0.766511 
vt -0.358058 0.779964 
vt -0.317723 0.779964 
vt -0.358058 0.798003 
vt -0.317723 0.798003 
vt -0.292262 0.766511 
vt -0.306252 0.766511 
vt -0.292262 0.751336 
vt -0.306252 0.741785 
vt -0.358058 0.798003 
vt -0.317723 0.816042 
vt -0.358058 0.816042 
vt -0.317723 0.798003 
vt -0.278273 0.766511 
vt -0.358058 0.779964 
vt -0.317723 0.798003 
vt -0.358058 0.798003 
vt -0.317723 0.779964 
vt -0.292262 0.766511 
vt -0.306252 0.766511 
vt -0.292262 0.751335 
vt -0.306252 0.741785 
vt -0.278273 0.766511 
vt -0.317723 0.798003 
vt -0.317723 0.816042 
vt -0.358058 0.798003 
vt -0.358058 0.816042 
vt -0.306252 0.766511 
vt -0.292262 0.751335 
vt -0.292262 0.766511 
vt -0.306252 0.741785 
vt -0.317723 0.779964 
vt -0.317723 0.798003 
vt -0.358058 0.779964 
vt -0.358058 0.798003 
vt -0.678609 0.775034 
vt -0.678609 0.734699 
vt 0.0422781 0.775034 
vt 0.0422781 0.734699 
vt -0.447783 0.734699 
vt -0.447783 0.775034 
vt -0.188548 0.775034 
vt -0.188548 0.734699 
vt -0.419804 0.734699 
vt -0.65063 0.734699 
vt -0.216527 0.734699 
vt 0.0142993 0.734699 
vt -0.678609 0.800495 
vt -0.318166 0.800495 
vt -0.66462 0.814484 
vt -0.318166 0.814484 
vt 0.0282887 0.814484 
vt 0.0422781 0.800495 
vt -0.318166 0.800495 
vt -0.66462 0.786506 
vt -0.318166 0.786506 
vt -0.678609 0.800495 
vt 0.0282887 0.786506 
vt 0.0422781 0.800495 
vt 0.0422781 0.733142 
vt 0.0422781 0.798003 
vt -0.678609 0.733142 
vt -0.678609 0.798003 
vt -0.188548 0.798003 
vt -0.188548 0.751336 
vt -0.447783 0.798003 
vt -0.447783 0.751336 
vt -0.188548 0.798003 
vt -0.216527 0.798003 
vt -0.202537 0.779964 
vt -0.202537 0.816042 
vt 0.0282887 0.779964 
vt 0.0422781 0.798003 
vt 0.0142993 0.798003 
vt 0.0282887 0.816042 
vt -0.419804 0.798003 
vt -0.447783 0.798003 
vt -0.433794 0.779964 
vt -0.433794 0.816042 
vt -0.65063 0.798003 
vt -0.678609 0.798003 
vt -0.66462 0.779964 
vt -0.66462 0.816042 

usemtl Pipes1Mtl

f 1/1/1 2/2/2 3/3/3 
f 2/2/2 1/1/1 4/4/4 
f 5/5/5 1/1/1 3/3/3 
f 6/6/6 1/1/1 5/5/5 
f 5/5/5 7/7/7 6/6/6 
f 7/7/7 5/5/5 8/8/8 
f 11/11/11 9/9/9 10/10/10 
f 10/10/10 12/12/12 11/11/11 
f 12/12/12 10/10/10 13/13/13 
f 14/14/14 15/15/15 16/16/16 
f 15/15/15 14/14/14 17/17/17 
f 17/17/17 18/18/18 15/15/15 
f 19/19/19 20/20/20 21/21/21 
f 20/20/20 19/19/19 22/22/22 
f 22/22/22 23/23/23 20/20/20 
f 20/20/20 23/23/23 24/24/24 
f 25/25/25 24/24/24 23/23/23 
f 26/26/26 24/24/24 25/25/25 
f 27/27/27 28/28/28 29/29/29 
f 29/29/29 28/28/28 30/30/30 
f 31/31/31 30/30/30 28/28/28 
f 32/32/32 33/33/33 34/34/34 
f 34/34/34 33/33/33 35/35/35 
f 36/36/36 35/35/35 33/33/33 
f 35/35/35 36/36/36 37/37/37 
f 38/38/38 37/37/37 36/36/36 
f 37/37/37 38/38/38 39/39/39 
f 40/40/40 41/41/41 42/42/42 
f 43/43/43 42/42/42 41/41/41 
f 44/44/44 42/42/42 43/43/43 
f 45/45/45 46/46/46 47/47/47 
f 46/46/46 45/45/45 48/48/48 
f 49/49/49 48/48/48 45/45/45 
f 48/48/48 49/49/49 50/50/50 
f 51/51/51 50/50/50 49/49/49 
f 52/52/52 50/50/50 51/51/51 
f 65/65/65 66/66/66 67/67/67 
f 68/68/68 67/67/67 66/66/66 
f 69/69/69 68/68/68 66/66/66 
f 69/69/69 66/66/66 70/70/70 
f 71/71/71 72/72/72 73/73/73 
f 72/72/72 71/71/71 74/74/74 
f 75/75/75 72/72/72 74/74/74 
f 72/72/72 75/75/75 76/76/76 
f 81/81/81 82/82/82 83/83/83 
f 83/83/83 84/84/84 81/81/81 
f 85/85/85 81/81/81 84/84/84 
f 86/86/86 87/87/87 88/88/88 
f 88/88/88 87/87/87 89/89/89 
f 90/90/90 89/89/89 87/87/87 
f 91/91/91 93/93/93 92/92/92 
f 94/94/94 92/92/92 93/93/93 
f 92/92/92 94/94/94 95/95/95 
f 96/96/96 97/97/97 98/98/98 
f 97/97/97 99/99/99 98/98/98 
f 99/99/99 97/97/97 100/100/100 
f 104/104/104 105/105/105 106/106/106 
f 106/106/106 105/105/105 107/107/107 
f 107/107/107 105/105/105 108/108/108 
f 110/110/110 109/109/109 111/111/111 
f 111/111/111 112/112/112 110/110/110 
f 112/112/112 113/113/113 110/110/110 
f 114/114/114 115/115/115 116/116/116 
f 116/116/116 115/115/115 117/117/117 
f 118/118/118 115/115/115 114/114/114 
f 119/119/119 120/120/120 121/121/121 
f 120/120/120 122/122/122 121/121/121 
f 121/121/121 123/123/123 119/119/119 
f 124/124/124 125/125/125 126/126/126 
f 125/125/125 124/124/124 127/127/127 
f 124/124/124 128/128/128 127/127/127 
f 124/124/124 129/129/129 128/128/128 
f 130/130/130 128/128/128 129/129/129 
f 131/131/131 128/128/128 130/130/130 
f 132/132/132 134/134/134 133/133/133 
f 135/135/135 133/133/133 134/134/134 
f 136/136/136 133/133/133 135/135/135 
f 137/137/137 138/138/138 139/139/139 
f 139/139/139 138/138/138 140/140/140 
f 141/141/141 140/140/140 138/138/138 
f 142/142/142 143/143/143 144/144/144 
f 144/144/144 143/143/143 145/145/145 
f 146/146/146 145/145/145 143/143/143 
f 146/146/146 143/143/143 147/147/147 
f 147/147/147 148/148/148 146/146/146 
f 147/147/147 149/149/149 148/148/148 
f 150/150/150 151/151/151 152/152/152 
f 151/151/151 150/150/150 153/153/153 
f 153/153/153 154/154/154 151/151/151 
f 155/155/155 156/156/156 157/157/157 
f 156/156/156 155/155/155 158/158/158 
f 158/158/158 159/159/159 156/156/156 
f 159/159/159 158/158/158 160/160/160 
f 160/160/160 161/161/161 159/159/159 
f 161/161/161 160/160/160 162/162/162 
f 164/164/164 163/163/163 165/165/165 
f 165/165/165 166/166/166 164/164/164 
f 166/166/166 165/165/165 167/167/167 
f 168/168/168 169/169/169 170/170/170 
f 169/169/169 168/168/168 171/171/171 
f 170/170/170 172/172/172 168/168/168 
f 172/172/172 170/170/170 173/173/173 
f 173/173/173 174/174/174 172/172/172 
f 174/174/174 173/173/173 175/175/175 
f 188/188/188 189/189/189 190/190/190 
f 190/190/190 189/189/189 191/191/191 
f 189/189/189 192/192/192 191/191/191 
f 189/189/189 193/193/193 192/192/192 
f 194/194/194 195/195/195 196/196/196 
f 195/195/195 194/194/194 197/197/197 
f 198/198/198 194/194/194 196/196/196 
f 194/194/194 198/198/198 199/199/199 
f 208/208/208 209/209/209 210/210/210 
f 209/209/209 208/208/208 211/211/211 
f 212/212/212 213/213/213 214/214/214 
f 213/213/213 215/215/215 214/214/214 
f 216/216/216 217/217/217 218/218/218 
f 217/217/217 216/216/216 219/219/219 
f 220/220/220 221/221/221 222/222/222 
f 221/221/221 220/220/220 223/223/223 

