# This file is brought to you by Roblox Corporation
# Generated by Roblox Studio

mtllib Tooth.mtl

g Tooth1

v -9.70545 2.36075 -28.3549 
v -9.71608 2.29807 -28.336 
v -9.70545 2.36075 -28.3171 
v -9.6151 2.36075 -28.3171 
v -9.6151 2.36075 -28.3549 
v -9.57899 2.40154 -28.361 
v -9.56627 2.40154 -28.336 
v -9.56627 2.40154 -28.336 
v -9.6151 2.36075 -28.3171 
v -9.57899 2.40154 -28.311 
v -9.63722 2.57862 -28.311 
v -9.61209 2.5695 -28.361 
v -9.57929 2.55499 -28.336 
v -9.59075 2.5469 -28.361 
v -9.60289 2.57999 -28.336 
v -9.61209 2.5695 -28.311 
v -9.57929 2.55499 -28.336 
v -9.60289 2.57999 -28.336 
v -9.59075 2.5469 -28.311 
v -9.59075 2.5469 -28.361 
v -9.56627 2.5175 -28.336 
v -9.57899 2.51302 -28.361 
v -9.57929 2.55499 -28.336 
v -9.57929 2.55499 -28.336 
v -9.59075 2.5469 -28.311 
v -9.56627 2.5175 -28.336 
v -9.57899 2.51302 -28.311 
v -9.57899 2.51302 -28.361 
v -9.56627 2.40154 -28.336 
v -9.57899 2.40154 -28.361 
v -9.56627 2.5175 -28.336 
v -9.57899 2.51302 -28.311 
v -9.56627 2.40154 -28.336 
v -9.56627 2.5175 -28.336 
v -9.57899 2.40154 -28.311 
v -9.68333 2.57862 -28.361 
v -9.66027 2.59269 -28.336 
v -9.66027 2.58098 -28.361 
v -9.68985 2.59008 -28.336 
v -9.66027 2.59269 -28.336 
v -9.63722 2.57862 -28.361 
v -9.66027 2.58098 -28.361 
v -9.6307 2.59008 -28.336 
v -9.66027 2.59269 -28.336 
v -9.63722 2.57862 -28.311 
v -9.6307 2.59008 -28.336 
v -9.66027 2.58098 -28.311 
v -9.60289 2.57999 -28.336 
v -9.71765 2.57999 -28.336 
v -9.70846 2.5695 -28.311 
v -9.70846 2.5695 -28.361 
v -9.68985 2.59008 -28.336 
v -9.68333 2.57862 -28.361 
v -9.71765 2.57999 -28.336 
v -9.63722 2.57862 -28.361 
v -9.61209 2.5695 -28.361 
v -9.6307 2.59008 -28.336 
v -9.60289 2.57999 -28.336 
v -9.71765 2.57999 -28.336 
v -9.70846 2.5695 -28.311 
v -9.68985 2.59008 -28.336 
v -9.68333 2.57862 -28.311 
v -9.66027 2.58098 -28.311 
v -9.63722 2.57862 -28.311 
v -9.6307 2.59008 -28.336 
v -9.61209 2.5695 -28.311 
v -9.60289 2.57999 -28.336 
v -9.66027 2.59269 -28.336 
v -9.68333 2.57862 -28.311 
v -9.68985 2.59008 -28.336 
v -9.72937 2.36075 -28.336 
v -9.70545 2.36075 -28.3549 
v -9.71608 2.29807 -28.336 
v -9.70545 2.36075 -28.3171 
v -9.68153 2.36075 -28.336 
v -9.66027 2.39087 -28.3129 
v -9.63902 2.36075 -28.336 
v -9.6151 2.36075 -28.3171 
v -9.60447 2.29807 -28.336 
v -9.59118 2.36075 -28.336 
v -9.57899 2.40154 -28.361 
v -9.56627 2.40154 -28.336 
v -9.56627 2.40154 -28.336 
v -9.6151 2.36075 -28.3171 
v -9.59118 2.36075 -28.336 
v -9.57899 2.40154 -28.311 
v -9.75428 2.40154 -28.336 
v -9.74156 2.40154 -28.361 
v -9.75428 2.40154 -28.336 
v -9.70545 2.36075 -28.3171 
v -9.74156 2.40154 -28.311 
v -9.72937 2.36075 -28.336 
v -9.6307 2.59008 -28.336 
v -9.63722 2.57862 -28.311 
v -9.57929 2.55499 -28.336 
v -9.59075 2.5469 -28.361 
v -9.60289 2.57999 -28.336 
v -9.71765 2.57999 -28.336 
v -9.70846 2.5695 -28.311 
v -9.56627 2.5175 -28.336 
v -9.57899 2.51302 -28.311 
v -9.75428 2.5175 -28.336 
v -9.74156 2.51302 -28.311 
v -9.70545 2.36075 -28.3171 
v -9.66027 2.39087 -28.3129 
v -9.74156 2.40154 -28.311 
v -9.6151 2.36075 -28.3171 
v -9.57899 2.40154 -28.311 
v -9.66027 2.39087 -28.3129 
v -9.68333 2.57862 -28.311 
v -9.66027 2.58098 -28.311 
v -9.63722 2.57862 -28.311 
v -9.70846 2.5695 -28.311 
v -9.61209 2.5695 -28.311 
v -9.72979 2.5469 -28.311 
v -9.59075 2.5469 -28.311 
v -9.74156 2.51302 -28.311 
v -9.59075 2.5469 -28.311 
v -9.57899 2.51302 -28.311 
v -9.74156 2.51302 -28.311 
v -9.57899 2.40154 -28.311 
v -9.74156 2.40154 -28.311 
v -9.57899 2.40154 -28.311 
v -9.66027 2.39087 -28.3129 
v -9.70545 2.36075 -28.3171 
v -9.70545 2.36075 -28.3549 
v -9.75428 2.40154 -28.336 
v -9.74156 2.40154 -28.361 
v -9.75428 2.40154 -28.336 
v -9.70545 2.36075 -28.3171 
v -9.74156 2.40154 -28.311 
v -9.74126 2.55499 -28.336 
v -9.70846 2.5695 -28.361 
v -9.72979 2.5469 -28.361 
v -9.71765 2.57999 -28.336 
v -9.74126 2.55499 -28.336 
v -9.70846 2.5695 -28.311 
v -9.71765 2.57999 -28.336 
v -9.72979 2.5469 -28.311 
v -9.72979 2.5469 -28.361 
v -9.74156 2.51302 -28.361 
v -9.75428 2.5175 -28.336 
v -9.74126 2.55499 -28.336 
v -9.74126 2.55499 -28.336 
v -9.75428 2.5175 -28.336 
v -9.72979 2.5469 -28.311 
v -9.74156 2.51302 -28.311 
v -9.74156 2.51302 -28.361 
v -9.74156 2.40154 -28.361 
v -9.75428 2.40154 -28.336 
v -9.75428 2.5175 -28.336 
v -9.74156 2.40154 -28.311 
v -9.74156 2.51302 -28.311 
v -9.75428 2.40154 -28.336 
v -9.75428 2.5175 -28.336 
v -9.70545 2.36075 -28.3549 
v -9.70545 2.36075 -28.3171 
v -9.68153 2.36075 -28.336 
v -9.66027 2.39087 -28.3581 
v -9.66027 2.39087 -28.3129 
v -9.66027 2.37714 -28.336 
v -9.63902 2.36075 -28.336 
v -9.6151 2.36075 -28.3549 
v -9.6151 2.36075 -28.3171 
v -9.72937 2.36075 -28.336 
v -9.70545 2.36075 -28.3549 
v -9.71608 2.29807 -28.336 
v -9.68153 2.36075 -28.336 
v -9.66027 2.39087 -28.3581 
v -9.63902 2.36075 -28.336 
v -9.6151 2.36075 -28.3549 
v -9.60447 2.29807 -28.336 
v -9.59118 2.36075 -28.336 
v -9.6151 2.36075 -28.3549 
v -9.57899 2.40154 -28.361 
v -9.56627 2.40154 -28.336 
v -9.59118 2.36075 -28.336 
v -9.70545 2.36075 -28.3549 
v -9.75428 2.40154 -28.336 
v -9.74156 2.40154 -28.361 
v -9.72937 2.36075 -28.336 
v -9.66027 2.58098 -28.361 
v -9.63722 2.57862 -28.361 
v -9.6307 2.59008 -28.336 
v -9.57929 2.55499 -28.336 
v -9.59075 2.5469 -28.361 
v -9.60289 2.57999 -28.336 
v -9.72979 2.5469 -28.361 
v -9.71765 2.57999 -28.336 
v -9.56627 2.5175 -28.336 
v -9.75428 2.5175 -28.336 
v -9.74156 2.40154 -28.361 
v -9.66027 2.39087 -28.3581 
v -9.70545 2.36075 -28.3549 
v -9.57899 2.40154 -28.361 
v -9.6151 2.36075 -28.3549 
v -9.66027 2.39087 -28.3581 
v -9.68333 2.57862 -28.361 
v -9.63722 2.57862 -28.361 
v -9.70846 2.5695 -28.361 
v -9.61209 2.5695 -28.361 
v -9.72979 2.5469 -28.361 
v -9.59075 2.5469 -28.361 
v -9.59075 2.5469 -28.361 
v -9.74156 2.51302 -28.361 
v -9.57899 2.51302 -28.361 
v -9.57899 2.40154 -28.361 
v -9.74156 2.51302 -28.361 
v -9.74156 2.40154 -28.361 
v -9.57899 2.40154 -28.361 
v -9.66027 2.39087 -28.3581 

vn -0.023622 -0.401575 -0.913386 
vn -0.149606 -0.984252 0 
vn -0.0314961 -0.409449 0.913386 
vn 0.0314961 -0.409449 0.913386 
vn 0.0314961 -0.401575 -0.913386 
vn 0.527559 -0.220472 -0.818898 
vn 0.952756 -0.291339 0 
vn 0.952756 -0.291339 0 
vn 0.0314961 -0.409449 0.913386 
vn 0.535433 -0.220472 0.818898 
vn 0.11811 0.559055 0.818898 
vn 0.307087 0.488189 -0.818898 
vn 0.850394 0.519685 0 
vn 0.488189 0.291339 -0.818898 
vn 0.559055 0.826772 0 
vn 0.307087 0.488189 0.818898 
vn 0.850394 0.519685 0 
vn 0.559055 0.826772 0 
vn 0.488189 0.291339 0.818898 
vn 0.488189 0.291339 -0.818898 
vn 0.984252 0.173228 0 
vn 0.566929 0.0866142 -0.818898 
vn 0.850394 0.519685 0 
vn 0.850394 0.519685 0 
vn 0.488189 0.291339 0.818898 
vn 0.984252 0.173228 0 
vn 0.566929 0.0866142 0.818898 
vn 0.566929 0.0866142 -0.818898 
vn 0.952756 -0.291339 0 
vn 0.527559 -0.220472 -0.818898 
vn 0.984252 0.173228 0 
vn 0.566929 0.0866142 0.818898 
vn 0.952756 -0.291339 0 
vn 0.984252 0.173228 0 
vn 0.535433 -0.220472 0.818898 
vn -0.11811 0.559055 -0.818898 
vn 0 1 0 
vn 0 0.574803 -0.818898 
vn -0.228346 0.976378 0 
vn 0 1 0 
vn 0.11811 0.559055 -0.818898 
vn 0 0.574803 -0.818898 
vn 0.228346 0.976378 0 
vn 0 1 0 
vn 0.11811 0.559055 0.818898 
vn 0.228346 0.976378 0 
vn 0 0.574803 0.818898 
vn 0.559055 0.826772 0 
vn -0.559055 0.826772 0 
vn -0.307087 0.488189 0.818898 
vn -0.307087 0.488189 -0.818898 
vn -0.228346 0.976378 0 
vn -0.11811 0.559055 -0.818898 
vn -0.559055 0.826772 0 
vn 0.11811 0.559055 -0.818898 
vn 0.307087 0.488189 -0.818898 
vn 0.228346 0.976378 0 
vn 0.559055 0.826772 0 
vn -0.559055 0.826772 0 
vn -0.307087 0.488189 0.818898 
vn -0.228346 0.976378 0 
vn -0.11811 0.559055 0.818898 
vn 0 0.574803 0.818898 
vn 0.11811 0.559055 0.818898 
vn 0.228346 0.976378 0 
vn 0.307087 0.488189 0.818898 
vn 0.559055 0.826772 0 
vn 0 1 0 
vn -0.11811 0.559055 0.818898 
vn -0.228346 0.976378 0 
vn -0.866142 -0.496063 0 
vn -0.023622 -0.401575 -0.913386 
vn -0.149606 -0.984252 0 
vn -0.0314961 -0.409449 0.913386 
vn 0.661417 -0.748031 -0.00787402 
vn 0.00787402 -0.417323 0.913386 
vn -0.653543 -0.755906 0 
vn 0.0314961 -0.409449 0.913386 
vn 0.149606 -0.984252 0 
vn 0.866142 -0.496063 0 
vn 0.527559 -0.220472 -0.818898 
vn 0.952756 -0.291339 0 
vn 0.952756 -0.291339 0 
vn 0.0314961 -0.409449 0.913386 
vn 0.866142 -0.496063 0 
vn 0.535433 -0.220472 0.818898 
vn -0.952756 -0.291339 0 
vn -0.527559 -0.220472 -0.818898 
vn -0.952756 -0.291339 0 
vn -0.0314961 -0.409449 0.913386 
vn -0.535433 -0.220472 0.818898 
vn -0.866142 -0.496063 0 
vn 0.228346 0.976378 0 
vn 0.11811 0.559055 0.818898 
vn 0.850394 0.519685 0 
vn 0.488189 0.291339 -0.818898 
vn 0.559055 0.826772 0 
vn -0.559055 0.826772 0 
vn -0.307087 0.488189 0.818898 
vn 0.984252 0.173228 0 
vn 0.566929 0.0866142 0.818898 
vn -0.984252 0.173228 0 
vn -0.566929 0.0866142 0.818898 
vn -0.0314961 -0.409449 0.913386 
vn 0.00787402 -0.417323 0.913386 
vn -0.535433 -0.220472 0.818898 
vn 0.0314961 -0.409449 0.913386 
vn 0.535433 -0.220472 0.818898 
vn 0.00787402 -0.417323 0.913386 
vn -0.11811 0.559055 0.818898 
vn 0 0.574803 0.818898 
vn 0.11811 0.559055 0.818898 
vn -0.307087 0.488189 0.818898 
vn 0.307087 0.488189 0.818898 
vn -0.488189 0.291339 0.818898 
vn 0.488189 0.291339 0.818898 
vn -0.566929 0.0866142 0.818898 
vn 0.488189 0.291339 0.818898 
vn 0.566929 0.0866142 0.818898 
vn -0.566929 0.0866142 0.818898 
vn 0.535433 -0.220472 0.818898 
vn -0.535433 -0.220472 0.818898 
vn 0.535433 -0.220472 0.818898 
vn 0.00787402 -0.417323 0.913386 
vn -0.0314961 -0.409449 0.913386 
vn -0.023622 -0.401575 -0.913386 
vn -0.952756 -0.291339 0 
vn -0.527559 -0.220472 -0.818898 
vn -0.952756 -0.291339 0 
vn -0.0314961 -0.409449 0.913386 
vn -0.535433 -0.220472 0.818898 
vn -0.850394 0.519685 0 
vn -0.307087 0.488189 -0.818898 
vn -0.488189 0.291339 -0.818898 
vn -0.559055 0.826772 0 
vn -0.850394 0.519685 0 
vn -0.307087 0.488189 0.818898 
vn -0.559055 0.826772 0 
vn -0.488189 0.291339 0.818898 
vn -0.488189 0.291339 -0.818898 
vn -0.566929 0.0866142 -0.818898 
vn -0.984252 0.173228 0 
vn -0.850394 0.519685 0 
vn -0.850394 0.519685 0 
vn -0.984252 0.173228 0 
vn -0.488189 0.291339 0.818898 
vn -0.566929 0.0866142 0.818898 
vn -0.566929 0.0866142 -0.818898 
vn -0.527559 -0.220472 -0.818898 
vn -0.952756 -0.291339 0 
vn -0.984252 0.173228 0 
vn -0.535433 -0.220472 0.818898 
vn -0.566929 0.0866142 0.818898 
vn -0.952756 -0.291339 0 
vn -0.984252 0.173228 0 
vn -0.023622 -0.401575 -0.913386 
vn -0.0314961 -0.409449 0.913386 
vn 0.661417 -0.748031 -0.00787402 
vn 0 -0.440945 -0.897638 
vn 0.00787402 -0.417323 0.913386 
vn -0.015748 -1 -0.00787402 
vn -0.653543 -0.755906 0 
vn 0.0314961 -0.401575 -0.913386 
vn 0.0314961 -0.409449 0.913386 
vn -0.866142 -0.496063 0 
vn -0.023622 -0.401575 -0.913386 
vn -0.149606 -0.984252 0 
vn 0.661417 -0.748031 -0.00787402 
vn 0 -0.440945 -0.897638 
vn -0.653543 -0.755906 0 
vn 0.0314961 -0.401575 -0.913386 
vn 0.149606 -0.984252 0 
vn 0.866142 -0.496063 0 
vn 0.0314961 -0.401575 -0.913386 
vn 0.527559 -0.220472 -0.818898 
vn 0.952756 -0.291339 0 
vn 0.866142 -0.496063 0 
vn -0.023622 -0.401575 -0.913386 
vn -0.952756 -0.291339 0 
vn -0.527559 -0.220472 -0.818898 
vn -0.866142 -0.496063 0 
vn 0 0.574803 -0.818898 
vn 0.11811 0.559055 -0.818898 
vn 0.228346 0.976378 0 
vn 0.850394 0.519685 0 
vn 0.488189 0.291339 -0.818898 
vn 0.559055 0.826772 0 
vn -0.488189 0.291339 -0.818898 
vn -0.559055 0.826772 0 
vn 0.984252 0.173228 0 
vn -0.984252 0.173228 0 
vn -0.527559 -0.220472 -0.818898 
vn 0 -0.440945 -0.897638 
vn -0.023622 -0.401575 -0.913386 
vn 0.527559 -0.220472 -0.818898 
vn 0.0314961 -0.401575 -0.913386 
vn 0 -0.440945 -0.897638 
vn -0.11811 0.559055 -0.818898 
vn 0.11811 0.559055 -0.818898 
vn -0.307087 0.488189 -0.818898 
vn 0.307087 0.488189 -0.818898 
vn -0.488189 0.291339 -0.818898 
vn 0.488189 0.291339 -0.818898 
vn 0.488189 0.291339 -0.818898 
vn -0.566929 0.0866142 -0.818898 
vn 0.566929 0.0866142 -0.818898 
vn 0.527559 -0.220472 -0.818898 
vn -0.566929 0.0866142 -0.818898 
vn -0.527559 -0.220472 -0.818898 
vn 0.527559 -0.220472 -0.818898 
vn 0 -0.440945 -0.897638 

vt 0.147103 0.923428 
vt 0.128188 0.86075 
vt 0.109275 0.923428 
vt 0.109275 0.923428 
vt 0.147103 0.923428 
vt 0.153189 0.964216 
vt 0.128188 0.964216 
vt 0.128188 0.964216 
vt 0.109275 0.923428 
vt 0.103189 0.964216 
vt 0.103189 1.14129 
vt 0.153189 1.13217 
vt 0.128188 1.11766 
vt 0.153189 1.10957 
vt 0.128188 1.14267 
vt 0.103189 1.13217 
vt 0.128188 1.11766 
vt 0.128188 1.14267 
vt 0.103189 1.10957 
vt 0.153189 1.10957 
vt 0.128188 1.08018 
vt 0.153189 1.07569 
vt 0.128188 1.11766 
vt 0.128188 1.11766 
vt 0.103189 1.10957 
vt 0.128188 1.08018 
vt 0.103189 1.07569 
vt 0.153189 1.07569 
vt 0.128188 0.964216 
vt 0.153189 0.964216 
vt 0.128188 1.08018 
vt 0.103189 1.07569 
vt 0.128188 0.964216 
vt 0.128188 1.08018 
vt 0.103189 0.964216 
vt 0.151243 0.98306 
vt 0.128189 1.00806 
vt 0.128189 0.98306 
vt 0.157768 1.00806 
vt 0.128189 1.00806 
vt 0.105135 0.98306 
vt 0.128189 0.98306 
vt 0.0986097 1.00806 
vt 0.128189 1.00806 
vt 0.105135 1.03306 
vt 0.0986097 1.00806 
vt 0.128189 1.03306 
vt 0.0708087 1.00806 
vt 0.185569 1.00806 
vt 0.176371 1.03306 
vt 0.176371 0.98306 
vt 0.157768 1.00806 
vt 0.151243 0.98306 
vt 0.185569 1.00806 
vt 0.105135 0.98306 
vt 0.0800067 0.98306 
vt 0.0986097 1.00806 
vt 0.0708087 1.00806 
vt 0.185569 1.00806 
vt 0.176371 1.03306 
vt 0.157768 1.00806 
vt 0.151243 1.03306 
vt 0.128189 1.03306 
vt 0.105135 1.03306 
vt 0.0986097 1.00806 
vt 0.0800067 1.03306 
vt 0.0708087 1.00806 
vt 0.128189 1.00806 
vt 0.151243 1.03306 
vt 0.157768 1.00806 
vt 0.0590977 0.923428 
vt 0.0830177 0.923428 
vt 0.0723867 0.86075 
vt 0.0830177 0.923428 
vt 0.106937 0.923428 
vt 0.128189 0.953549 
vt 0.149441 0.923428 
vt 0.17336 0.923428 
vt 0.183991 0.86075 
vt 0.19728 0.923428 
vt 0.209475 0.964216 
vt 0.222196 0.964216 
vt 0.222196 0.964216 
vt 0.17336 0.923428 
vt 0.19728 0.923428 
vt 0.209475 0.964216 
vt 0.0341817 0.964216 
vt 0.0469027 0.964216 
vt 0.0341817 0.964216 
vt 0.0830177 0.923428 
vt 0.0469027 0.964216 
vt 0.0590977 0.923428 
vt 0.157768 1.15276 
vt 0.151243 1.14129 
vt 0.209178 1.11766 
vt 0.197709 1.10957 
vt 0.185569 1.14267 
vt 0.0708087 1.14267 
vt 0.0800067 1.13217 
vt 0.222196 1.08018 
vt 0.209475 1.07569 
vt 0.0341817 1.08018 
vt 0.0469027 1.07569 
vt 0.0830177 0.923428 
vt 0.128189 0.953549 
vt 0.0469027 0.964216 
vt 0.17336 0.923428 
vt 0.209475 0.964216 
vt 0.128189 0.953549 
vt 0.105135 1.14129 
vt 0.128189 1.14365 
vt 0.151243 1.14129 
vt 0.0800067 1.13217 
vt 0.176371 1.13217 
vt 0.0586687 1.10957 
vt 0.197709 1.10957 
vt 0.0469027 1.07569 
vt 0.197709 1.10957 
vt 0.209475 1.07569 
vt 0.0469027 1.07569 
vt 0.209475 0.964216 
vt 0.0469027 0.964216 
vt 0.209475 0.964216 
vt 0.128189 0.953549 
vt 0.147103 0.923428 
vt 0.109275 0.923428 
vt 0.128189 0.964216 
vt 0.103189 0.964216 
vt 0.128189 0.964216 
vt 0.147103 0.923428 
vt 0.153189 0.964216 
vt 0.128189 1.11766 
vt 0.103189 1.13217 
vt 0.103189 1.10957 
vt 0.128189 1.14267 
vt 0.128189 1.11766 
vt 0.153189 1.13217 
vt 0.128189 1.14267 
vt 0.153189 1.10957 
vt 0.103189 1.10957 
vt 0.103189 1.07569 
vt 0.128189 1.08018 
vt 0.128189 1.11766 
vt 0.128189 1.11766 
vt 0.128189 1.08018 
vt 0.153189 1.10957 
vt 0.153189 1.07569 
vt 0.103189 1.07569 
vt 0.103189 0.964216 
vt 0.128189 0.964216 
vt 0.128189 1.08018 
vt 0.153189 0.964216 
vt 0.153189 1.07569 
vt 0.128189 0.964216 
vt 0.128189 1.08018 
vt 0.0830177 0.989146 
vt 0.0830177 1.02697 
vt 0.106937 1.00806 
vt 0.128189 0.986007 
vt 0.128189 1.03121 
vt 0.128189 1.00806 
vt 0.149441 1.00806 
vt 0.17336 0.989146 
vt 0.17336 1.02697 
vt 0.19728 0.923428 
vt 0.17336 0.923428 
vt 0.183991 0.86075 
vt 0.149441 0.923428 
vt 0.128189 0.953549 
vt 0.106937 0.923428 
vt 0.0830177 0.923428 
vt 0.0723867 0.86075 
vt 0.0590977 0.923428 
vt 0.0830177 0.923428 
vt 0.0469027 0.964216 
vt 0.0341817 0.964216 
vt 0.0590977 0.923428 
vt 0.17336 0.923428 
vt 0.222196 0.964216 
vt 0.209475 0.964216 
vt 0.19728 0.923428 
vt 0.128189 1.14365 
vt 0.105135 1.14129 
vt 0.0986097 1.15276 
vt 0.0471997 1.11766 
vt 0.0586687 1.10957 
vt 0.0708087 1.14267 
vt 0.197709 1.10957 
vt 0.185569 1.14267 
vt 0.0341817 1.08018 
vt 0.222196 1.08018 
vt 0.209475 0.964216 
vt 0.128189 0.953549 
vt 0.17336 0.923428 
vt 0.0469027 0.964216 
vt 0.0830177 0.923428 
vt 0.128189 0.953549 
vt 0.151243 1.14129 
vt 0.105135 1.14129 
vt 0.176371 1.13217 
vt 0.0800067 1.13217 
vt 0.197709 1.10957 
vt 0.0586687 1.10957 
vt 0.0586687 1.10957 
vt 0.209475 1.07569 
vt 0.0469027 1.07569 
vt 0.0469027 0.964216 
vt 0.209475 1.07569 
vt 0.209475 0.964216 
vt 0.0469027 0.964216 
vt 0.128189 0.953549 

usemtl Tooth1Mtl

f 5/5/5 6/6/6 7/7/7 
f 9/9/9 8/8/8 10/10/10 
f 12/12/12 13/13/13 14/14/14 
f 13/13/13 12/12/12 15/15/15 
f 16/16/16 17/17/17 18/18/18 
f 17/17/17 16/16/16 19/19/19 
f 20/20/20 21/21/21 22/22/22 
f 21/21/21 20/20/20 23/23/23 
f 24/24/24 25/25/25 26/26/26 
f 26/26/26 25/25/25 27/27/27 
f 28/28/28 29/29/29 30/30/30 
f 29/29/29 28/28/28 31/31/31 
f 32/32/32 33/33/33 34/34/34 
f 33/33/33 32/32/32 35/35/35 
f 36/36/36 37/37/37 38/38/38 
f 37/37/37 36/36/36 39/39/39 
f 40/40/40 41/41/41 42/42/42 
f 41/41/41 40/40/40 43/43/43 
f 44/44/44 45/45/45 46/46/46 
f 45/45/45 44/44/44 47/47/47 
f 51/51/51 52/52/52 53/53/53 
f 52/52/52 51/51/51 54/54/54 
f 56/56/56 55/55/55 57/57/57 
f 57/57/57 58/58/58 56/56/56 
f 59/59/59 60/60/60 61/61/61 
f 61/61/61 60/60/60 62/62/62 
f 65/65/65 64/64/64 66/66/66 
f 67/67/67 65/65/65 66/66/66 
f 68/68/68 69/69/69 63/63/63 
f 69/69/69 68/68/68 70/70/70 
f 73/73/73 74/74/74 71/71/71 
f 75/75/75 74/74/74 73/73/73 
f 77/77/77 79/79/79 78/78/78 
f 79/79/79 80/80/80 78/78/78 
f 83/83/83 84/84/84 85/85/85 
f 90/90/90 89/89/89 92/92/92 
f 104/104/104 105/105/105 106/106/106 
f 107/107/107 108/108/108 109/109/109 
f 111/111/111 110/110/110 112/112/112 
f 113/113/113 112/112/112 110/110/110 
f 112/112/112 113/113/113 114/114/114 
f 115/115/115 114/114/114 113/113/113 
f 114/114/114 115/115/115 116/116/116 
f 117/117/117 118/118/118 115/115/115 
f 118/118/118 117/117/117 119/119/119 
f 120/120/120 121/121/121 119/119/119 
f 121/121/121 120/120/120 122/122/122 
f 123/123/123 122/122/122 124/124/124 
f 126/126/126 127/127/127 128/128/128 
f 129/129/129 130/130/130 131/131/131 
f 132/132/132 133/133/133 134/134/134 
f 133/133/133 132/132/132 135/135/135 
f 136/136/136 137/137/137 138/138/138 
f 137/137/137 136/136/136 139/139/139 
f 140/140/140 141/141/141 142/142/142 
f 142/142/142 143/143/143 140/140/140 
f 144/144/144 145/145/145 146/146/146 
f 145/145/145 147/147/147 146/146/146 
f 148/148/148 149/149/149 150/150/150 
f 148/148/148 150/150/150 151/151/151 
f 152/152/152 153/153/153 154/154/154 
f 155/155/155 154/154/154 153/153/153 
f 159/159/159 158/158/158 156/156/156 
f 158/158/158 160/160/160 157/157/157 
f 158/158/158 159/159/159 161/161/161 
f 160/160/160 158/158/158 161/161/161 
f 159/159/159 162/162/162 161/161/161 
f 162/162/162 160/160/160 161/161/161 
f 162/162/162 159/159/159 163/163/163 
f 160/160/160 162/162/162 164/164/164 
f 165/165/165 166/166/166 167/167/167 
f 168/168/168 167/167/167 166/166/166 
f 170/170/170 171/171/171 172/172/172 
f 173/173/173 172/172/172 171/171/171 
f 174/174/174 176/176/176 177/177/177 
f 179/179/179 178/178/178 181/181/181 
f 192/192/192 193/193/193 194/194/194 
f 195/195/195 196/196/196 197/197/197 
f 182/182/182 199/199/199 198/198/198 
f 199/199/199 200/200/200 198/198/198 
f 201/201/201 200/200/200 199/199/199 
f 201/201/201 202/202/202 200/200/200 
f 202/202/202 201/201/201 203/203/203 
f 204/204/204 205/205/205 202/202/202 
f 205/205/205 204/204/204 206/206/206 
f 207/207/207 208/208/208 206/206/206 
f 208/208/208 207/207/207 209/209/209 
f 209/209/209 210/210/210 211/211/211 

