# This file is brought to you by Roblox Corporation
# Generated by Roblox Studio

mtllib Hood.mtl

g Door1

v -1.88622 2.50402 -39.705 
v -1.88622 2.60402 -36.8671 
v -1.88622 2.50402 -36.8671 
v -1.88622 2.60402 -39.805 
v -1.88622 2.28674 -39.805 
v -1.88622 2.28674 -39.705 
v -4.66027 2.60402 -39.805 
v -7.43432 2.60402 -39.805 
v -7.43432 2.60402 -36.8671 
v -4.66027 2.60402 -36.8671 
v -1.88622 2.60402 -36.8671 
v -1.88622 2.60402 -39.805 
v -4.66027 2.50402 -36.8671 
v -7.43432 2.60402 -36.8671 
v -7.43432 2.50402 -36.8671 
v -4.66027 2.60402 -36.8671 
v -1.88622 2.60402 -36.8671 
v -1.88622 2.50402 -36.8671 
v -7.43432 2.28674 -39.705 
v -4.66027 2.28674 -39.705 
v -4.66027 2.50402 -39.705 
v -7.43432 2.50402 -39.705 
v -1.88622 2.28674 -39.705 
v -1.88622 2.50402 -39.705 
v -7.43432 2.60402 -36.8671 
v -7.43432 2.50402 -39.705 
v -7.43432 2.50402 -36.8671 
v -7.43432 2.60402 -39.805 
v -7.43432 2.28674 -39.805 
v -7.43432 2.28674 -39.705 
v -7.43432 2.28674 -39.805 
v -4.66027 2.28674 -39.805 
v -4.66027 2.28674 -39.705 
v -7.43432 2.28674 -39.705 
v -1.88622 2.28674 -39.805 
v -1.88622 2.28674 -39.705 
v -7.43432 2.50402 -39.705 
v -4.66027 2.50402 -39.705 
v -4.66027 2.50402 -36.8671 
v -7.43432 2.50402 -36.8671 
v -1.88622 2.50402 -39.705 
v -1.88622 2.50402 -36.8671 
v -4.66027 2.60402 -39.805 
v -7.43432 2.28674 -39.805 
v -7.43432 2.60402 -39.805 
v -4.66027 2.28674 -39.805 
v -1.88622 2.28674 -39.805 
v -1.88622 2.60402 -39.805 

vn 1 0 0 
vn 1 0 0 
vn 1 0 0 
vn 1 0 0 
vn 1 0 0 
vn 1 0 0 
vn 0 1 0 
vn 0 1 0 
vn 0 1 0 
vn 0 1 0 
vn 0 1 0 
vn 0 1 0 
vn 0 0 1 
vn 0 0 1 
vn 0 0 1 
vn 0 0 1 
vn 0 0 1 
vn 0 0 1 
vn 0 0 1 
vn 0 0 1 
vn 0 0 1 
vn 0 0 1 
vn 0 0 1 
vn 0 0 1 
vn -1 0 0 
vn -1 0 0 
vn -1 0 0 
vn -1 0 0 
vn -1 0 0 
vn -1 0 0 
vn 0 -1 0 
vn 0 -1 0 
vn 0 -1 0 
vn 0 -1 0 
vn 0 -1 0 
vn 0 -1 0 
vn 0 -1 0 
vn 0 -1 0 
vn 0 -1 0 
vn 0 -1 0 
vn 0 -1 0 
vn 0 -1 0 
vn 0 0 -1 
vn 0 0 -1 
vn 0 0 -1 
vn 0 0 -1 
vn 0 0 -1 
vn 0 0 -1 

vt 3.3982 2.14472 
vt 2.83062 2.16472 
vt 2.83062 2.14472 
vt 3.4182 2.16472 
vt 3.4182 2.10127 
vt 3.3982 2.10127 
vt 3.12441 1.83921 
vt 3.67922 1.83921 
vt 3.67922 2.42678 
vt 3.12441 2.42678 
vt 2.5696 2.42678 
vt 2.5696 1.83921 
vt 3.12441 2.14472 
vt 2.5696 2.16472 
vt 2.5696 2.14472 
vt 3.12441 2.16472 
vt 3.67922 2.16472 
vt 3.67922 2.14472 
vt 2.5696 2.10127 
vt 3.12441 2.10127 
vt 3.12441 2.14472 
vt 2.5696 2.14472 
vt 3.67922 2.10127 
vt 3.67922 2.14472 
vt 3.4182 2.16472 
vt 2.85062 2.14472 
vt 3.4182 2.14472 
vt 2.83062 2.16472 
vt 2.83062 2.10127 
vt 2.85062 2.10127 
vt 2.5696 1.83921 
vt 3.12441 1.83921 
vt 3.12441 1.85921 
vt 2.5696 1.85921 
vt 3.67922 1.83921 
vt 3.67922 1.85921 
vt 2.5696 1.85921 
vt 3.12441 1.85921 
vt 3.12441 2.42678 
vt 2.5696 2.42678 
vt 3.67922 1.85921 
vt 3.67922 2.42678 
vt 3.12441 2.16472 
vt 3.67922 2.10127 
vt 3.67922 2.16472 
vt 3.12441 2.10127 
vt 2.5696 2.10127 
vt 2.5696 2.16472 

usemtl Door1Mtl

f 1/1/1 2/2/2 3/3/3 
f 2/2/2 1/1/1 4/4/4 
f 1/1/1 5/5/5 4/4/4 
f 5/5/5 1/1/1 6/6/6 
f 7/7/7 8/8/8 9/9/9 
f 7/7/7 9/9/9 10/10/10 
f 11/11/11 7/7/7 10/10/10 
f 7/7/7 11/11/11 12/12/12 
f 13/13/13 14/14/14 15/15/15 
f 14/14/14 13/13/13 16/16/16 
f 13/13/13 17/17/17 16/16/16 
f 13/13/13 18/18/18 17/17/17 
f 19/19/19 20/20/20 21/21/21 
f 19/19/19 21/21/21 22/22/22 
f 23/23/23 21/21/21 20/20/20 
f 21/21/21 23/23/23 24/24/24 
f 25/25/25 26/26/26 27/27/27 
f 26/26/26 25/25/25 28/28/28 
f 29/29/29 26/26/26 28/28/28 
f 26/26/26 29/29/29 30/30/30 
f 31/31/31 32/32/32 33/33/33 
f 31/31/31 33/33/33 34/34/34 
f 32/32/32 35/35/35 33/33/33 
f 36/36/36 33/33/33 35/35/35 
f 37/37/37 38/38/38 39/39/39 
f 37/37/37 39/39/39 40/40/40 
f 41/41/41 39/39/39 38/38/38 
f 39/39/39 41/41/41 42/42/42 
f 43/43/43 44/44/44 45/45/45 
f 44/44/44 43/43/43 46/46/46 
f 43/43/43 47/47/47 46/46/46 
f 43/43/43 48/48/48 47/47/47 

