# This file is brought to you by Roblox Corporation
# Generated by Roblox Studio

mtllib LongStick.mtl

g Longstick1

v 0.429725 2.53538 -46.836 
v 0.429725 2.53538 -39.836 
v 0.429725 2.35538 -46.836 
v 0.429725 2.35538 -39.836 
v 0.249725 2.53538 -39.836 
v 0.429725 2.53538 -39.836 
v 0.249725 2.53538 -46.836 
v 0.429725 2.53538 -46.836 
v 0.429725 2.53538 -39.836 
v 0.249725 2.53538 -39.836 
v 0.429725 2.35538 -39.836 
v 0.249725 2.35538 -39.836 
v 0.249725 2.53538 -39.836 
v 0.249725 2.53538 -46.836 
v 0.249725 2.35538 -39.836 
v 0.249725 2.35538 -46.836 
v 0.249725 2.35538 -46.836 
v 0.429725 2.35538 -46.836 
v 0.249725 2.35538 -39.836 
v 0.429725 2.35538 -39.836 
v 0.249725 2.53538 -46.836 
v 0.429725 2.53538 -46.836 
v 0.249725 2.35538 -46.836 
v 0.429725 2.35538 -46.836 

vn 1 0 0 
vn 1 0 0 
vn 1 0 0 
vn 1 0 0 
vn 0 1 0 
vn 0 1 0 
vn 0 1 0 
vn 0 1 0 
vn 0 0 1 
vn 0 0 1 
vn 0 0 1 
vn 0 0 1 
vn -1 0 0 
vn -1 0 0 
vn -1 0 0 
vn -1 0 0 
vn 0 -1 0 
vn 0 -1 0 
vn 0 -1 0 
vn 0 -1 0 
vn 0 0 -1 
vn 0 0 -1 
vn 0 0 -1 
vn 0 0 -1 

vt 1.6829 1.19838 
vt 0.282899 1.19838 
vt 1.6829 1.16238 
vt 0.282899 1.16238 
vt 0.318899 1.19838 
vt 0.282899 1.19838 
vt 0.318899 -0.201621 
vt 0.282899 -0.201621 
vt 0.318899 1.19838 
vt 0.282899 1.19838 
vt 0.318899 1.16238 
vt 0.282899 1.16238 
vt 1.6829 1.19838 
vt 0.282899 1.19838 
vt 1.6829 1.16238 
vt 0.282899 1.16238 
vt 0.318899 1.19838 
vt 0.282899 1.19838 
vt 0.318899 -0.201621 
vt 0.282899 -0.201621 
vt 0.318899 1.19838 
vt 0.282899 1.19838 
vt 0.318899 1.16238 
vt 0.282899 1.16238 

usemtl Longstick1Mtl

f 1/1/1 2/2/2 3/3/3 
f 3/3/3 2/2/2 4/4/4 
f 5/5/5 6/6/6 7/7/7 
f 7/7/7 6/6/6 8/8/8 
f 9/9/9 10/10/10 11/11/11 
f 11/11/11 10/10/10 12/12/12 
f 13/13/13 14/14/14 15/15/15 
f 15/15/15 14/14/14 16/16/16 
f 17/17/17 18/18/18 19/19/19 
f 19/19/19 18/18/18 20/20/20 
f 21/21/21 22/22/22 23/23/23 
f 23/23/23 22/22/22 24/24/24 

