# This file is brought to you by Roblox Corporation
# Generated by Roblox Studio

mtllib Joust.mtl

g Visual1

v -6.25404 3.41341 -28.369 
v -6.25404 3.37769 -28.3772 
v -6.25404 3.39648 -28.3772 
v -6.25404 3.34905 -28.3543 
v -6.25404 3.36077 -28.369 
v -6.25404 3.39648 -28.2949 
v -6.25404 3.42513 -28.3177 
v -6.25404 3.42513 -28.3543 
v -6.25404 3.42931 -28.336 
v -6.25404 3.41341 -28.303 
v -6.25404 3.34905 -28.3177 
v -6.25404 3.34487 -28.336 
v -6.25404 3.37769 -28.2949 
v -6.25404 3.36077 -28.303 
v -6.6626 3.51179 -28.1797 
v -6.69743 3.41595 -28.3221 
v -6.6626 3.56728 -28.2493 
v -6.69743 3.41913 -28.336 
v -6.69743 3.40706 -28.311 
v -6.6626 3.58709 -28.336 
v -6.6626 3.43159 -28.141 
v -6.69743 3.41595 -28.3499 
v -6.69743 3.39422 -28.3048 
v -6.6626 3.56728 -28.4228 
v -6.69743 3.37996 -28.3048 
v -6.6626 3.51179 -28.4924 
v -6.6626 3.34258 -28.141 
v -6.69743 3.40706 -28.3611 
v -6.69743 3.36711 -28.311 
v -6.6626 3.43159 -28.531 
v -6.6626 3.26239 -28.1797 
v -6.69743 3.39422 -28.3673 
v -6.6626 3.20689 -28.2493 
v -6.6626 3.34258 -28.531 
v -6.69743 3.35822 -28.3221 
v -6.69743 3.37996 -28.3673 
v -6.69743 3.35505 -28.336 
v -6.69743 3.36711 -28.3611 
v -6.6626 3.18709 -28.336 
v -6.6626 3.26239 -28.4924 
v -6.6626 3.20689 -28.4228 
v -6.69743 3.35822 -28.3499 
v -6.82139 3.25941 -28.3975 
v -6.6626 3.18709 -28.336 
v -6.82139 3.24538 -28.336 
v -6.6626 3.20689 -28.4228 
v -7.07097 3.2946 -28.3806 
v -7.07097 3.28444 -28.336 
v -6.82139 3.29874 -28.4468 
v -6.6626 3.26239 -28.4924 
v -6.6626 3.34258 -28.531 
v -7.07097 3.32309 -28.4163 
v -6.82139 3.35556 -28.4742 
v -6.6626 3.43159 -28.531 
v -8.23374 3.36645 -28.346 
v -8.23374 3.36419 -28.336 
v -8.57233 3.38709 -28.336 
v -8.23374 3.37281 -28.3539 
v -7.07097 3.36425 -28.4361 
v -6.82139 3.41862 -28.4742 
v -8.23374 3.38199 -28.3584 
v -7.07097 3.40993 -28.4361 
v -8.23374 3.39218 -28.3584 
v -8.23374 3.40137 -28.3539 
v -7.07097 3.45109 -28.4163 
v -6.82139 3.47544 -28.4468 
v -6.6626 3.51179 -28.4924 
v -6.6626 3.56728 -28.4228 
v -6.82139 3.51476 -28.3975 
v -6.6626 3.58709 -28.336 
v -6.82139 3.5288 -28.336 
v -7.07097 3.47957 -28.3806 
v -7.07097 3.48974 -28.336 
v -8.23374 3.40772 -28.346 
v -8.23374 3.40999 -28.336 
v -6.6626 3.56728 -28.2493 
v -6.82139 3.47544 -28.2252 
v -6.6626 3.51179 -28.1797 
v -6.6626 3.43159 -28.141 
v -6.82139 3.51476 -28.2745 
v -6.6626 3.58709 -28.336 
v -6.82139 3.5288 -28.336 
v -6.82139 3.41862 -28.1979 
v -6.6626 3.34258 -28.141 
v -7.07097 3.45109 -28.2558 
v -7.07097 3.47957 -28.2915 
v -7.07097 3.48974 -28.336 
v -8.23374 3.40772 -28.3261 
v -8.23374 3.40999 -28.336 
v -8.57233 3.38709 -28.336 
v -8.23374 3.40137 -28.3181 
v -7.07097 3.40993 -28.236 
v -8.23374 3.39218 -28.3137 
v -7.07097 3.36425 -28.236 
v -8.23374 3.38199 -28.3137 
v -8.23374 3.37281 -28.3181 
v -8.23374 3.36645 -28.3261 
v -8.23374 3.36419 -28.336 
v -7.07097 3.28444 -28.336 
v -7.07097 3.2946 -28.2915 
v -6.82139 3.24538 -28.336 
v -7.07097 3.32309 -28.2558 
v -6.82139 3.35556 -28.1979 
v -6.82139 3.25941 -28.2745 
v -6.6626 3.18709 -28.336 
v -6.6626 3.20689 -28.2493 
v -6.82139 3.29874 -28.2252 
v -6.6626 3.26239 -28.1797 
v -6.69743 3.35822 -28.3499 
v -6.27993 3.33561 -28.336 
v -6.69743 3.35505 -28.336 
v -6.27993 3.34071 -28.3584 
v -6.69743 3.36711 -28.3611 
v -6.25404 3.34905 -28.3543 
v -6.25404 3.34487 -28.336 
v -6.25404 3.36077 -28.369 
v -6.27993 3.35499 -28.3763 
v -6.27993 3.37563 -28.3862 
v -6.25404 3.37769 -28.3772 
v -6.69743 3.37996 -28.3673 
v -6.25404 3.39648 -28.3772 
v -6.27993 3.39854 -28.3862 
v -6.69743 3.39422 -28.3673 
v -6.25404 3.41341 -28.369 
v -6.69743 3.40706 -28.3611 
v -6.27993 3.41918 -28.3763 
v -6.27993 3.43347 -28.3584 
v -6.25404 3.42513 -28.3543 
v -6.69743 3.41595 -28.3499 
v -6.27993 3.43856 -28.336 
v -6.25404 3.42931 -28.336 
v -6.69743 3.41913 -28.336 
v -6.69743 3.40706 -28.311 
v -6.27993 3.43347 -28.3137 
v -6.69743 3.41595 -28.3221 
v -6.27993 3.43856 -28.336 
v -6.69743 3.41913 -28.336 
v -6.25404 3.42513 -28.3177 
v -6.25404 3.42931 -28.336 
v -6.25404 3.41341 -28.303 
v -6.27993 3.41918 -28.2958 
v -6.27993 3.39854 -28.2858 
v -6.25404 3.39648 -28.2949 
v -6.69743 3.39422 -28.3048 
v -6.25404 3.37769 -28.2949 
v -6.27993 3.37563 -28.2858 
v -6.69743 3.37996 -28.3048 
v -6.25404 3.36077 -28.303 
v -6.69743 3.36711 -28.311 
v -6.27993 3.35499 -28.2958 
v -6.27993 3.34071 -28.3137 
v -6.25404 3.34905 -28.3177 
v -6.69743 3.35822 -28.3221 
v -6.27993 3.33561 -28.336 
v -6.25404 3.34487 -28.336 
v -6.69743 3.35505 -28.336 

vn 1 0 0 
vn 1 0 0 
vn 1 0 0 
vn 1 0 0 
vn 1 0 0 
vn 1 0 0 
vn 1 0 0 
vn 1 0 0 
vn 1 0 0 
vn 1 0 0 
vn 1 0 0 
vn 1 0 0 
vn 1 0 0 
vn 1 0 0 
vn 0.976378 -0.125984 -0.15748 
vn 0.976378 -0.181102 -0.0866142 
vn 0.976378 -0.181102 -0.0866142 
vn 0.976378 -0.204724 0 
vn 0.976378 -0.125984 -0.15748 
vn 0.976378 -0.204724 0 
vn 0.976378 -0.0472441 -0.19685 
vn 0.976378 -0.181102 0.0866142 
vn 0.976378 -0.0472441 -0.19685 
vn 0.976378 -0.181102 0.0866142 
vn 0.976378 0.0472441 -0.19685 
vn 0.976378 -0.125984 0.15748 
vn 0.976378 0.0472441 -0.19685 
vn 0.976378 -0.125984 0.15748 
vn 0.976378 0.125984 -0.15748 
vn 0.976378 -0.0472441 0.19685 
vn 0.976378 0.125984 -0.15748 
vn 0.976378 -0.0472441 0.19685 
vn 0.976378 0.181102 -0.0866142 
vn 0.976378 0.0472441 0.19685 
vn 0.976378 0.181102 -0.0866142 
vn 0.976378 0.0472441 0.19685 
vn 0.976378 0.204724 0 
vn 0.976378 0.125984 0.15748 
vn 0.976378 0.204724 0 
vn 0.976378 0.125984 0.15748 
vn 0.976378 0.181102 0.0866142 
vn 0.976378 0.181102 0.0866142 
vn -0.251969 -0.874016 -0.417323 
vn -0.346457 -0.937008 0 
vn -0.251969 -0.968504 0 
vn -0.346457 -0.84252 -0.409449 
vn -0.0944882 -0.897638 -0.433071 
vn -0.0944882 -0.992126 0 
vn -0.251969 -0.606299 -0.755906 
vn -0.346457 -0.582677 -0.732283 
vn -0.346457 -0.212598 -0.913386 
vn -0.0944882 -0.622047 -0.779528 
vn -0.251969 -0.212598 -0.944882 
vn -0.346457 0.212598 -0.913386 
vn -0.0708661 -0.897638 -0.433071 
vn -0.0708661 -1 0 
vn -1 0 0 
vn -0.0708661 -0.622047 -0.779528 
vn -0.0944882 -0.220472 -0.968504 
vn -0.251969 0.212598 -0.944882 
vn -0.0708661 -0.220472 -0.976378 
vn -0.0944882 0.220472 -0.968504 
vn -0.0708661 0.220472 -0.976378 
vn -0.0708661 0.622047 -0.779528 
vn -0.0944882 0.622047 -0.779528 
vn -0.251969 0.606299 -0.755906 
vn -0.346457 0.582677 -0.732283 
vn -0.346457 0.84252 -0.409449 
vn -0.251969 0.874016 -0.417323 
vn -0.346457 0.937008 0 
vn -0.251969 0.968504 0 
vn -0.0944882 0.897638 -0.433071 
vn -0.0944882 0.992126 0 
vn -0.0708661 0.897638 -0.433071 
vn -0.0708661 1 0 
vn -0.346457 0.84252 0.409449 
vn -0.251969 0.606299 0.755906 
vn -0.346457 0.582677 0.732283 
vn -0.346457 0.212598 0.913386 
vn -0.251969 0.874016 0.417323 
vn -0.346457 0.937008 0 
vn -0.251969 0.968504 0 
vn -0.251969 0.212598 0.944882 
vn -0.346457 -0.212598 0.913386 
vn -0.0944882 0.622047 0.779528 
vn -0.0944882 0.897638 0.433071 
vn -0.0944882 0.992126 0 
vn -0.0708661 0.897638 0.433071 
vn -0.0708661 1 0 
vn -1 0 0 
vn -0.0708661 0.622047 0.779528 
vn -0.0944882 0.220472 0.968504 
vn -0.0708661 0.220472 0.976378 
vn -0.0944882 -0.220472 0.968504 
vn -0.0708661 -0.220472 0.976378 
vn -0.0708661 -0.622047 0.779528 
vn -0.0708661 -0.897638 0.433071 
vn -0.0708661 -1 0 
vn -0.0944882 -0.992126 0 
vn -0.0944882 -0.897638 0.433071 
vn -0.251969 -0.968504 0 
vn -0.0944882 -0.622047 0.779528 
vn -0.251969 -0.212598 0.944882 
vn -0.251969 -0.874016 0.417323 
vn -0.346457 -0.937008 0 
vn -0.346457 -0.84252 0.409449 
vn -0.251969 -0.606299 0.755906 
vn -0.346457 -0.582677 0.732283 
vn -0.0472441 -0.897638 -0.433071 
vn -0.023622 -1 0 
vn -0.0472441 -1 0 
vn -0.023622 -0.897638 -0.433071 
vn -0.0472441 -0.622047 -0.779528 
vn 0.338583 -0.850394 -0.409449 
vn 0.338583 -0.944882 0 
vn 0.338583 -0.590551 -0.732283 
vn -0.023622 -0.622047 -0.779528 
vn -0.023622 -0.220472 -0.976378 
vn 0.338583 -0.212598 -0.92126 
vn -0.0472441 -0.220472 -0.976378 
vn 0.338583 0.212598 -0.92126 
vn -0.023622 0.220472 -0.976378 
vn -0.0472441 0.220472 -0.976378 
vn 0.338583 0.590551 -0.732283 
vn -0.0472441 0.622047 -0.779528 
vn -0.023622 0.622047 -0.779528 
vn -0.023622 0.897638 -0.433071 
vn 0.338583 0.850394 -0.409449 
vn -0.0472441 0.897638 -0.433071 
vn -0.023622 1 0 
vn 0.338583 0.944882 0 
vn -0.0472441 1 0 
vn -0.0472441 0.622047 0.779528 
vn -0.023622 0.897638 0.433071 
vn -0.0472441 0.897638 0.433071 
vn -0.023622 1 0 
vn -0.0472441 1 0 
vn 0.338583 0.850394 0.409449 
vn 0.338583 0.944882 0 
vn 0.338583 0.590551 0.732283 
vn -0.023622 0.622047 0.779528 
vn -0.023622 0.220472 0.976378 
vn 0.338583 0.212598 0.92126 
vn -0.0472441 0.220472 0.976378 
vn 0.338583 -0.212598 0.92126 
vn -0.023622 -0.220472 0.976378 
vn -0.0472441 -0.220472 0.976378 
vn 0.338583 -0.590551 0.732283 
vn -0.0472441 -0.622047 0.779528 
vn -0.023622 -0.622047 0.779528 
vn -0.023622 -0.897638 0.433071 
vn 0.338583 -0.850394 0.409449 
vn -0.0472441 -0.897638 0.433071 
vn -0.023622 -1 0 
vn 0.338583 -0.944882 0 
vn -0.0472441 -1 0 

vt 0.0693959 0.0181098 
vt 0.111968 0.0181098 
vt 0.0895732 0.0181098 
vt 0.146108 0.0181098 
vt 0.132145 0.0181098 
vt 0.0895731 0.0181098 
vt 0.0554328 0.0181098 
vt 0.0554328 0.0181098 
vt 0.0504495 0.0181098 
vt 0.0693959 0.0181098 
vt 0.146108 0.0181098 
vt 0.151092 0.0181098 
vt 0.111968 0.0181098 
vt 0.132145 0.0181098 
vt 0.544412 0.213936 
vt 0.536057 0.219838 
vt 0.540733 0.210998 
vt 0.535298 0.219742 
vt 0.536668 0.220276 
vt 0.535931 0.210145 
vt 0.546368 0.218277 
vt 0.53454 0.220011 
vt 0.537012 0.220967 
vt 0.53094 0.211712 
vt 0.537024 0.221774 
vt 0.526867 0.215498 
vt 0.546351 0.223196 
vt 0.533936 0.220594 
vt 0.536705 0.22254 
vt 0.524687 0.220705 
vt 0.54442 0.227848 
vt 0.533611 0.221375 
vt 0.540895 0.231453 
vt 0.524909 0.226133 
vt 0.536115 0.223119 
vt 0.533629 0.222194 
vt 0.535368 0.223396 
vt 0.533987 0.222887 
vt 0.536337 0.233348 
vt 0.527409 0.230554 
vt 0.531529 0.233084 
vt 0.534608 0.223315 
vt 0.431535 0.250293 
vt 0.404645 0.104603 
vt 0.436903 0.224203 
vt 0.39707 0.141426 
vt 0.503827 0.333357 
vt 0.507716 0.314457 
vt 0.416495 0.323398 
vt 0.375842 0.244603 
vt 0.345168 0.393698 
vt 0.492932 0.386313 
vt 0.394761 0.429038 
vt 0.311123 0.559182 
vt 0.875843 0.549132 
vt 0.876711 0.544915 
vt 0.98428 0.611429 
vt 0.873412 0.560947 
vt 0.477189 0.462838 
vt 0.370638 0.546289 
vt 0.8699 0.578021 
vt 0.459714 0.547774 
vt 0.866001 0.596972 
vt 0.862488 0.614046 
vt 0.443971 0.624298 
vt 0.348905 0.651929 
vt 0.280449 0.708277 
vt 0.259222 0.811454 
vt 0.333864 0.725034 
vt 0.251646 0.848277 
vt 0.328497 0.751125 
vt 0.433076 0.677255 
vt 0.429187 0.696155 
vt 0.860057 0.625861 
vt 0.85919 0.630078 
vt 0.259222 0.811454 
vt 0.348905 0.651929 
vt 0.280449 0.708277 
vt 0.311123 0.559182 
vt 0.333864 0.725034 
vt 0.251646 0.848277 
vt 0.328497 0.751125 
vt 0.370638 0.546289 
vt 0.345168 0.393699 
vt 0.443971 0.624298 
vt 0.433076 0.677255 
vt 0.429187 0.696155 
vt 0.860057 0.625861 
vt 0.85919 0.630078 
vt 0.98428 0.611429 
vt 0.862488 0.614046 
vt 0.459714 0.547774 
vt 0.866001 0.596972 
vt 0.477188 0.462838 
vt 0.8699 0.578021 
vt 0.873412 0.560947 
vt 0.875843 0.549132 
vt 0.876711 0.544915 
vt 0.507716 0.314457 
vt 0.503827 0.333357 
vt 0.436903 0.224203 
vt 0.492932 0.386313 
vt 0.394761 0.429038 
vt 0.431535 0.250293 
vt 0.404645 0.104603 
vt 0.397069 0.141426 
vt 0.416495 0.323398 
vt 0.375842 0.244603 
vt 0.156049 0.98189 
vt 0.162125 0.0535258 
vt 0.162125 0.98189 
vt 0.156049 0.0535258 
vt 0.139025 0.98189 
vt 0.146108 0.0181098 
vt 0.151092 0.0181098 
vt 0.132145 0.0181098 
vt 0.139025 0.0535258 
vt 0.114423 0.0535258 
vt 0.111968 0.0181098 
vt 0.114423 0.98189 
vt 0.0895732 0.0181098 
vt 0.0871179 0.0535258 
vt 0.0871179 0.98189 
vt 0.0693959 0.0181098 
vt 0.0625166 0.98189 
vt 0.0625166 0.0535258 
vt 0.0454919 0.0535258 
vt 0.0554328 0.0181098 
vt 0.0454919 0.98189 
vt 0.0394158 0.0535258 
vt 0.0504495 0.0181098 
vt 0.0394158 0.98189 
vt 0.0625166 0.98189 
vt 0.0454919 0.0535258 
vt 0.0454919 0.98189 
vt 0.0394158 0.0535258 
vt 0.0394158 0.98189 
vt 0.0554328 0.0181098 
vt 0.0504495 0.0181098 
vt 0.0693959 0.0181098 
vt 0.0625166 0.0535258 
vt 0.0871179 0.0535258 
vt 0.0895731 0.0181098 
vt 0.0871179 0.98189 
vt 0.111968 0.0181098 
vt 0.114423 0.0535258 
vt 0.114423 0.98189 
vt 0.132145 0.0181098 
vt 0.139025 0.98189 
vt 0.139025 0.0535258 
vt 0.156049 0.0535258 
vt 0.146108 0.0181098 
vt 0.156049 0.98189 
vt 0.162125 0.0535258 
vt 0.151092 0.0181098 
vt 0.162125 0.98189 

usemtl Visual1Mtl

f 1/1/1 2/2/2 3/3/3 
f 2/2/2 1/1/1 4/4/4 
f 2/2/2 4/4/4 5/5/5 
f 4/4/4 1/1/1 6/6/6 
f 6/6/6 1/1/1 7/7/7 
f 7/7/7 1/1/1 8/8/8 
f 7/7/7 8/8/8 9/9/9 
f 6/6/6 7/7/7 10/10/10 
f 4/4/4 6/6/6 11/11/11 
f 4/4/4 11/11/11 12/12/12 
f 11/11/11 6/6/6 13/13/13 
f 11/11/11 13/13/13 14/14/14 
f 15/15/15 16/16/16 17/17/17 
f 18/18/18 17/17/17 16/16/16 
f 16/16/16 15/15/15 19/19/19 
f 17/17/17 18/18/18 20/20/20 
f 21/21/21 19/19/19 15/15/15 
f 22/22/22 20/20/20 18/18/18 
f 19/19/19 21/21/21 23/23/23 
f 20/20/20 22/22/22 24/24/24 
f 23/23/23 21/21/21 25/25/25 
f 22/22/22 26/26/26 24/24/24 
f 21/21/21 27/27/27 25/25/25 
f 28/28/28 26/26/26 22/22/22 
f 25/25/25 27/27/27 29/29/29 
f 28/28/28 30/30/30 26/26/26 
f 31/31/31 29/29/29 27/27/27 
f 30/30/30 28/28/28 32/32/32 
f 33/33/33 29/29/29 31/31/31 
f 30/30/30 32/32/32 34/34/34 
f 29/29/29 33/33/33 35/35/35 
f 34/34/34 32/32/32 36/36/36 
f 33/33/33 37/37/37 35/35/35 
f 38/38/38 34/34/34 36/36/36 
f 37/37/37 33/33/33 39/39/39 
f 34/34/34 38/38/38 40/40/40 
f 41/41/41 37/37/37 39/39/39 
f 41/41/41 40/40/40 38/38/38 
f 37/37/37 41/41/41 42/42/42 
f 42/42/42 41/41/41 38/38/38 
f 43/43/43 44/44/44 45/45/45 
f 44/44/44 43/43/43 46/46/46 
f 45/45/45 47/47/47 43/43/43 
f 47/47/47 45/45/45 48/48/48 
f 49/49/49 46/46/46 43/43/43 
f 46/46/46 49/49/49 50/50/50 
f 50/50/50 49/49/49 51/51/51 
f 43/43/43 52/52/52 49/49/49 
f 52/52/52 43/43/43 47/47/47 
f 51/51/51 49/49/49 53/53/53 
f 49/49/49 52/52/52 53/53/53 
f 51/51/51 53/53/53 54/54/54 
f 48/48/48 55/55/55 47/47/47 
f 55/55/55 48/48/48 56/56/56 
f 55/55/55 56/56/56 57/57/57 
f 58/58/58 47/47/47 55/55/55 
f 47/47/47 58/58/58 52/52/52 
f 58/58/58 55/55/55 57/57/57 
f 53/53/53 52/52/52 59/59/59 
f 52/52/52 58/58/58 59/59/59 
f 53/53/53 59/59/59 60/60/60 
f 54/54/54 53/53/53 60/60/60 
f 59/59/59 58/58/58 61/61/61 
f 61/61/61 58/58/58 57/57/57 
f 60/60/60 59/59/59 62/62/62 
f 61/61/61 62/62/62 59/59/59 
f 62/62/62 61/61/61 63/63/63 
f 63/63/63 61/61/61 57/57/57 
f 64/64/64 62/62/62 63/63/63 
f 64/64/64 63/63/63 57/57/57 
f 65/65/65 60/60/60 62/62/62 
f 62/62/62 64/64/64 65/65/65 
f 66/66/66 54/54/54 60/60/60 
f 60/60/60 65/65/65 66/66/66 
f 54/54/54 66/66/66 67/67/67 
f 67/67/67 66/66/66 68/68/68 
f 69/69/69 68/68/68 66/66/66 
f 65/65/65 69/69/69 66/66/66 
f 68/68/68 69/69/69 70/70/70 
f 71/71/71 70/70/70 69/69/69 
f 69/69/69 65/65/65 72/72/72 
f 72/72/72 71/71/71 69/69/69 
f 64/64/64 72/72/72 65/65/65 
f 71/71/71 72/72/72 73/73/73 
f 74/74/74 72/72/72 64/64/64 
f 74/74/74 73/73/73 72/72/72 
f 74/74/74 64/64/64 57/57/57 
f 73/73/73 74/74/74 75/75/75 
f 75/75/75 74/74/74 57/57/57 
f 76/76/76 77/77/77 78/78/78 
f 77/77/77 79/79/79 78/78/78 
f 77/77/77 76/76/76 80/80/80 
f 81/81/81 80/80/80 76/76/76 
f 80/80/80 81/81/81 82/82/82 
f 83/83/83 79/79/79 77/77/77 
f 83/83/83 84/84/84 79/79/79 
f 80/80/80 85/85/85 77/77/77 
f 83/83/83 77/77/77 85/85/85 
f 82/82/82 86/86/86 80/80/80 
f 85/85/85 80/80/80 86/86/86 
f 86/86/86 82/82/82 87/87/87 
f 87/87/87 88/88/88 86/86/86 
f 88/88/88 87/87/87 89/89/89 
f 88/88/88 89/89/89 90/90/90 
f 91/91/91 86/86/86 88/88/88 
f 86/86/86 91/91/91 85/85/85 
f 91/91/91 88/88/88 90/90/90 
f 85/85/85 91/91/91 92/92/92 
f 92/92/92 83/83/83 85/85/85 
f 93/93/93 92/92/92 91/91/91 
f 93/93/93 91/91/91 90/90/90 
f 94/94/94 83/83/83 92/92/92 
f 94/94/94 92/92/92 93/93/93 
f 95/95/95 93/93/93 90/90/90 
f 95/95/95 94/94/94 93/93/93 
f 96/96/96 95/95/95 90/90/90 
f 96/96/96 94/94/94 95/95/95 
f 97/97/97 96/96/96 90/90/90 
f 98/98/98 97/97/97 90/90/90 
f 98/98/98 99/99/99 97/97/97 
f 100/100/100 97/97/97 99/99/99 
f 97/97/97 100/100/100 96/96/96 
f 99/99/99 101/101/101 100/100/100 
f 94/94/94 96/96/96 102/102/102 
f 102/102/102 96/96/96 100/100/100 
f 83/83/83 94/94/94 103/103/103 
f 102/102/102 103/103/103 94/94/94 
f 103/103/103 84/84/84 83/83/83 
f 104/104/104 100/100/100 101/101/101 
f 100/100/100 104/104/104 102/102/102 
f 105/105/105 104/104/104 101/101/101 
f 104/104/104 105/105/105 106/106/106 
f 107/107/107 84/84/84 103/103/103 
f 103/103/103 102/102/102 107/107/107 
f 107/107/107 102/102/102 104/104/104 
f 106/106/106 107/107/107 104/104/104 
f 84/84/84 107/107/107 108/108/108 
f 107/107/107 106/106/106 108/108/108 
f 109/109/109 110/110/110 111/111/111 
f 110/110/110 109/109/109 112/112/112 
f 113/113/113 112/112/112 109/109/109 
f 114/114/114 110/110/110 112/112/112 
f 110/110/110 114/114/114 115/115/115 
f 112/112/112 116/116/116 114/114/114 
f 112/112/112 113/113/113 117/117/117 
f 116/116/116 112/112/112 117/117/117 
f 117/117/117 113/113/113 118/118/118 
f 118/118/118 116/116/116 117/117/117 
f 116/116/116 118/118/118 119/119/119 
f 118/118/118 113/113/113 120/120/120 
f 121/121/121 119/119/119 118/118/118 
f 118/118/118 120/120/120 122/122/122 
f 121/121/121 118/118/118 122/122/122 
f 122/122/122 120/120/120 123/123/123 
f 121/121/121 122/122/122 124/124/124 
f 125/125/125 122/122/122 123/123/123 
f 122/122/122 126/126/126 124/124/124 
f 122/122/122 125/125/125 126/126/126 
f 127/127/127 124/124/124 126/126/126 
f 126/126/126 125/125/125 127/127/127 
f 124/124/124 127/127/127 128/128/128 
f 129/129/129 127/127/127 125/125/125 
f 130/130/130 128/128/128 127/127/127 
f 127/127/127 129/129/129 130/130/130 
f 128/128/128 130/130/130 131/131/131 
f 132/132/132 130/130/130 129/129/129 
f 133/133/133 134/134/134 135/135/135 
f 135/135/135 136/136/136 137/137/137 
f 136/136/136 135/135/135 134/134/134 
f 136/136/136 134/134/134 138/138/138 
f 139/139/139 136/136/136 138/138/138 
f 138/138/138 134/134/134 140/140/140 
f 134/134/134 133/133/133 141/141/141 
f 141/141/141 140/140/140 134/134/134 
f 133/133/133 142/142/142 141/141/141 
f 142/142/142 140/140/140 141/141/141 
f 140/140/140 142/142/142 143/143/143 
f 144/144/144 142/142/142 133/133/133 
f 142/142/142 145/145/145 143/143/143 
f 144/144/144 146/146/146 142/142/142 
f 146/146/146 145/145/145 142/142/142 
f 147/147/147 146/146/146 144/144/144 
f 146/146/146 148/148/148 145/145/145 
f 149/149/149 146/146/146 147/147/147 
f 150/150/150 148/148/148 146/146/146 
f 146/146/146 149/149/149 150/150/150 
f 151/151/151 148/148/148 150/150/150 
f 149/149/149 151/151/151 150/150/150 
f 148/148/148 151/151/151 152/152/152 
f 151/151/151 149/149/149 153/153/153 
f 154/154/154 152/152/152 151/151/151 
f 153/153/153 154/154/154 151/151/151 
f 152/152/152 154/154/154 155/155/155 
f 154/154/154 153/153/153 156/156/156 

