# This file is brought to you by Roblox Corporation
# Generated by Roblox Studio

mtllib CannonBall.mtl

g Cannonball1

v -4.81487 2.81794 -28.0683 
v -4.50567 2.81794 -28.0683 
v -4.3925 3.04429 -27.8722 
v -4.66027 2.73509 -28.336 
v -4.35107 2.81794 -28.336 
v -4.96947 2.81794 -28.336 
v -4.12472 3.04429 -28.336 
v -5.19583 3.04429 -28.336 
v -4.04187 3.35349 -28.336 
v -4.92805 3.04429 -27.8722 
v -5.27868 3.35349 -28.336 
v -4.96947 3.35349 -27.8005 
v -4.35107 3.35349 -27.8005 
v -4.92805 3.66269 -27.8722 
v -5.19583 3.66269 -28.336 
v -4.3925 3.66269 -27.8722 
v -4.12472 3.66269 -28.336 
v -4.35107 3.88904 -28.336 
v -4.50567 3.88904 -28.0683 
v -4.66027 3.97189 -28.336 
v -4.81487 3.88904 -28.0683 
v -4.96947 3.88904 -28.336 
v -4.50567 2.81794 -28.6038 
v -4.12472 3.04429 -28.336 
v -4.35107 2.81794 -28.336 
v -4.66027 2.73509 -28.336 
v -4.81487 2.81794 -28.6038 
v -4.96947 2.81794 -28.336 
v -4.92805 3.04429 -28.7998 
v -5.19583 3.04429 -28.336 
v -5.27868 3.35349 -28.336 
v -4.3925 3.04429 -28.7998 
v -4.04187 3.35349 -28.336 
v -4.96947 3.35349 -28.8716 
v -4.35107 3.35349 -28.8716 
v -4.3925 3.66269 -28.7998 
v -4.12472 3.66269 -28.336 
v -4.92805 3.66269 -28.7998 
v -5.19583 3.66269 -28.336 
v -4.96947 3.88904 -28.336 
v -4.50567 3.88904 -28.6038 
v -4.35107 3.88904 -28.336 
v -4.81487 3.88904 -28.6038 
v -4.66027 3.97189 -28.336 

vn -0.322835 -0.76378 0.559055 
vn 0.322835 -0.76378 0.559055 
vn 0.448819 -0.425197 0.787402 
vn 0 -1 0 
vn 0.645669 -0.76378 0 
vn -0.645669 -0.76378 0 
vn 0.905512 -0.425197 0 
vn -0.905512 -0.425197 0 
vn 1 0 0 
vn -0.448819 -0.425197 0.787402 
vn -1 0 0 
vn -0.496063 0 0.866142 
vn 0.496063 0 0.866142 
vn -0.448819 0.425197 0.787402 
vn -0.905512 0.425197 0 
vn 0.448819 0.425197 0.787402 
vn 0.905512 0.425197 0 
vn 0.645669 0.76378 0 
vn 0.322835 0.76378 0.559055 
vn 0 1 0 
vn -0.322835 0.76378 0.559055 
vn -0.645669 0.76378 0 
vn 0.322835 -0.76378 -0.559055 
vn 0.905512 -0.425197 0 
vn 0.645669 -0.76378 0 
vn 0 -1 0 
vn -0.322835 -0.76378 -0.559055 
vn -0.645669 -0.76378 0 
vn -0.448819 -0.425197 -0.787402 
vn -0.905512 -0.425197 0 
vn -1 0 0 
vn 0.448819 -0.425197 -0.787402 
vn 1 0 0 
vn -0.496063 0 -0.866142 
vn 0.503937 0 -0.866142 
vn 0.448819 0.425197 -0.787402 
vn 0.905512 0.425197 0 
vn -0.448819 0.425197 -0.787402 
vn -0.905512 0.425197 0 
vn -0.645669 0.76378 0 
vn 0.322835 0.76378 -0.559055 
vn 0.645669 0.76378 0 
vn -0.322835 0.76378 -0.559055 
vn 0 1 0 

vt 0.618209 0.0905126 
vt 0.381791 0.0905126 
vt 0.295256 0.263582 
vt 0.5 0.0271647 
vt 0.263582 0.0905126 
vt 0.736418 0.0905126 
vt 0.0905126 0.263582 
vt 0.909487 0.263582 
vt 0.0271647 0.5 
vt 0.704744 0.263582 
vt 0.972835 0.5 
vt 0.736418 0.5 
vt 0.263582 0.5 
vt 0.704744 0.736418 
vt 0.909487 0.736418 
vt 0.295256 0.736418 
vt 0.0905126 0.736418 
vt 0.263582 0.909487 
vt 0.381791 0.909487 
vt 0.5 0.972835 
vt 0.618209 0.909487 
vt 0.736418 0.909487 
vt 0.381791 0.0905126 
vt 0.0905126 0.263582 
vt 0.263582 0.0905126 
vt 0.5 0.0271647 
vt 0.618209 0.0905126 
vt 0.736418 0.0905126 
vt 0.704744 0.263582 
vt 0.909487 0.263582 
vt 0.972835 0.5 
vt 0.295256 0.263582 
vt 0.0271647 0.5 
vt 0.736418 0.5 
vt 0.263582 0.5 
vt 0.295256 0.736418 
vt 0.0905126 0.736418 
vt 0.704744 0.736418 
vt 0.909487 0.736418 
vt 0.736418 0.909487 
vt 0.381791 0.909487 
vt 0.263582 0.909487 
vt 0.618209 0.909487 
vt 0.5 0.972835 

usemtl Cannonball1Mtl

f 1/1/1 2/2/2 3/3/3 
f 2/2/2 1/1/1 4/4/4 
f 5/5/5 2/2/2 4/4/4 
f 5/5/5 3/3/3 2/2/2 
f 1/1/1 6/6/6 4/4/4 
f 3/3/3 5/5/5 7/7/7 
f 1/1/1 8/8/8 6/6/6 
f 9/9/9 3/3/3 7/7/7 
f 8/8/8 1/1/1 10/10/10 
f 1/1/1 3/3/3 10/10/10 
f 10/10/10 11/11/11 8/8/8 
f 11/11/11 10/10/10 12/12/12 
f 10/10/10 3/3/3 13/13/13 
f 3/3/3 9/9/9 13/13/13 
f 10/10/10 13/13/13 12/12/12 
f 11/11/11 12/12/12 14/14/14 
f 13/13/13 14/14/14 12/12/12 
f 15/15/15 11/11/11 14/14/14 
f 9/9/9 16/16/16 13/13/13 
f 14/14/14 13/13/13 16/16/16 
f 16/16/16 9/9/9 17/17/17 
f 16/16/16 17/17/17 18/18/18 
f 16/16/16 18/18/18 19/19/19 
f 19/19/19 18/18/18 20/20/20 
f 16/16/16 21/21/21 14/14/14 
f 21/21/21 16/16/16 19/19/19 
f 21/21/21 15/15/15 14/14/14 
f 21/21/21 19/19/19 20/20/20 
f 15/15/15 21/21/21 22/22/22 
f 22/22/22 21/21/21 20/20/20 
f 23/23/23 24/24/24 25/25/25 
f 23/23/23 25/25/25 26/26/26 
f 27/27/27 23/23/23 26/26/26 
f 28/28/28 27/27/27 26/26/26 
f 28/28/28 29/29/29 27/27/27 
f 29/29/29 23/23/23 27/27/27 
f 29/29/29 28/28/28 30/30/30 
f 29/29/29 30/30/30 31/31/31 
f 24/24/24 23/23/23 32/32/32 
f 29/29/29 32/32/32 23/23/23 
f 32/32/32 33/33/33 24/24/24 
f 34/34/34 29/29/29 31/31/31 
f 34/34/34 32/32/32 29/29/29 
f 33/33/33 32/32/32 35/35/35 
f 34/34/34 35/35/35 32/32/32 
f 36/36/36 33/33/33 35/35/35 
f 34/34/34 36/36/36 35/35/35 
f 33/33/33 36/36/36 37/37/37 
f 31/31/31 38/38/38 34/34/34 
f 36/36/36 34/34/34 38/38/38 
f 38/38/38 31/31/31 39/39/39 
f 38/38/38 39/39/39 40/40/40 
f 37/37/37 36/36/36 41/41/41 
f 38/38/38 41/41/41 36/36/36 
f 37/37/37 41/41/41 42/42/42 
f 38/38/38 40/40/40 43/43/43 
f 41/41/41 38/38/38 43/43/43 
f 43/43/43 40/40/40 44/44/44 
f 42/42/42 41/41/41 44/44/44 
f 41/41/41 43/43/43 44/44/44 

