# This file is brought to you by Roblox Corporation
# Generated by Roblox Studio

mtllib Light.mtl

g Screw1

v -9.66026 2.67105 -43.114 
v -9.54743 2.64081 -43.114 
v -9.54743 2.64081 -42.9996 
v -9.46483 2.55821 -43.114 
v -9.46483 2.55821 -42.9996 
v -9.4346 2.44538 -43.114 
v -9.54743 2.24995 -42.9996 
v -9.4346 2.44538 -42.9996 
v -9.54743 2.24995 -43.114 
v -9.46483 2.33255 -43.114 
v -9.46483 2.33255 -42.9996 
v -9.54743 2.64081 -42.9996 
v -9.58032 2.58384 -42.9494 
v -9.79871 2.52532 -42.9494 
v -9.77309 2.64081 -43.114 
v -9.88592 2.44538 -42.9996 
v -9.77309 2.64081 -42.9996 
v -9.66026 2.67105 -43.114 
v -9.66026 2.67105 -42.9996 
v -9.54743 2.64081 -43.114 
v -9.54743 2.64081 -42.9996 
v -9.4346 2.44538 -42.9996 
v -9.46483 2.55821 -42.9996 
v -9.5218 2.52532 -42.9494 
v -9.54743 2.64081 -42.9996 
v -9.50039 2.44538 -42.9494 
v -9.58032 2.58384 -42.9494 
v -9.66026 2.67105 -42.9996 
v -9.46483 2.33255 -42.9996 
v -9.5218 2.36545 -42.9494 
v -9.54743 2.24995 -42.9996 
v -9.58032 2.30693 -42.9494 
v -9.66026 2.21972 -42.9996 
v -9.66026 2.60526 -42.9494 
v -9.66026 2.28551 -42.9494 
v -9.82013 2.44538 -42.9494 
v -9.7402 2.30693 -42.9494 
v -9.77309 2.24995 -42.9996 
v -9.79871 2.36545 -42.9494 
v -9.85569 2.33255 -42.9996 
v -9.88592 2.44538 -42.9996 
v -9.79871 2.52532 -42.9494 
v -9.85569 2.55821 -42.9996 
v -9.7402 2.58384 -42.9494 
v -9.77309 2.64081 -42.9996 
v -9.66026 2.67105 -43.114 
v -9.77309 2.24995 -43.114 
v -9.54743 2.64081 -43.114 
v -9.66026 2.92669 -43.2787 
v -9.66026 2.67105 -43.114 
v -9.77309 2.64081 -43.114 
v -9.4196 2.86221 -43.2787 
v -9.90092 2.86221 -43.2787 
v -9.46483 2.55821 -43.114 
v -9.24343 2.68604 -43.2787 
v -9.85569 2.55821 -43.114 
v -10.0771 2.68604 -43.2787 
v -9.17895 2.44538 -43.2787 
v -10.1416 2.44538 -43.2787 
v -9.4346 2.44538 -43.114 
v -9.88592 2.44538 -43.114 
v -9.46483 2.33255 -43.114 
v -9.85569 2.33255 -43.114 
v -9.24343 2.20473 -43.2787 
v -10.0771 2.20473 -43.2787 
v -9.54743 2.24995 -43.114 
v -9.77309 2.24995 -43.114 
v -9.4196 2.02855 -43.2787 
v -9.90092 2.02855 -43.2787 
v -9.66026 2.21972 -43.114 
v -9.66026 1.96407 -43.2787 
v -9.88592 2.44538 -42.9996 
v -9.79871 2.52532 -42.9494 
v -9.77309 2.64081 -42.9996 
v -9.85569 2.55821 -43.114 
v -9.85569 2.55821 -42.9996 
v -9.77309 2.64081 -43.114 
v -9.88592 2.44538 -42.9996 
v -9.77309 2.64081 -42.9996 
v -9.88592 2.44538 -43.114 
v -9.66026 2.67105 -43.114 
v -9.85569 2.33255 -42.9996 
v -9.85569 2.33255 -43.114 
v -9.77309 2.24995 -42.9996 
v -9.77309 2.24995 -43.114 
v -9.46483 2.33255 -42.9996 
v -9.58032 2.30693 -42.9494 
v -9.66026 2.21972 -42.9996 
v -9.88592 2.44538 -43.114 
v -9.77309 2.24995 -42.9996 
v -9.77309 2.24995 -43.114 
v -9.66026 2.21972 -42.9996 
v -9.66026 2.21972 -43.114 
v -9.54743 2.24995 -42.9996 
v -9.54743 2.24995 -43.114 
v 0 0 0 

vn 0 1 0 
vn 0.503937 0.866142 0 
vn 0.503937 0.866142 0 
vn 0.866142 0.503937 0 
vn 0.866142 0.503937 0 
vn 1 0 0 
vn 0.503937 -0.866142 0 
vn 1 0 0 
vn 0.503937 -0.866142 0 
vn 0.866142 -0.503937 0 
vn 0.866142 -0.503937 0 
vn 0.299213 0.527559 0.795276 
vn 0.181102 0.314961 0.929134 
vn -0.314961 0.181102 0.929134 
vn -0.503937 0.866142 0 
vn -1 0 0 
vn -0.503937 0.866142 0 
vn 0 1 0 
vn 0 1 0 
vn 0.503937 0.866142 0 
vn 0.503937 0.866142 0 
vn 0.606299 0 0.795276 
vn 0.527559 0.299213 0.795276 
vn 0.314961 0.181102 0.929134 
vn 0.299213 0.527559 0.795276 
vn 0.362205 0 0.929134 
vn 0.181102 0.314961 0.929134 
vn 0 0.606299 0.795276 
vn 0.527559 -0.299213 0.795276 
vn 0.314961 -0.181102 0.929134 
vn 0.299213 -0.527559 0.795276 
vn 0.181102 -0.314961 0.929134 
vn 0 -0.606299 0.795276 
vn 0 0.362205 0.929134 
vn 0 -0.362205 0.929134 
vn -0.362205 0 0.929134 
vn -0.181102 -0.314961 0.929134 
vn -0.299213 -0.527559 0.795276 
vn -0.314961 -0.181102 0.929134 
vn -0.527559 -0.299213 0.795276 
vn -0.606299 0 0.795276 
vn -0.314961 0.181102 0.929134 
vn -0.527559 0.299213 0.795276 
vn -0.181102 0.314961 0.929134 
vn -0.299213 0.527559 0.795276 
vn 0 1 0 
vn -0.503937 -0.866142 0 
vn 0.267717 0.472441 0.84252 
vn 0 0.543307 0.84252 
vn 0 0.543307 0.84252 
vn -0.267717 0.472441 0.84252 
vn 0.267717 0.472441 0.84252 
vn -0.267717 0.472441 0.84252 
vn 0.472441 0.267717 0.84252 
vn 0.472441 0.267717 0.84252 
vn -0.472441 0.267717 0.84252 
vn -0.472441 0.267717 0.84252 
vn 0.543307 0 0.84252 
vn -0.543307 0 0.84252 
vn 0.543307 0 0.84252 
vn -0.543307 0 0.84252 
vn 0.472441 -0.267717 0.84252 
vn -0.472441 -0.267717 0.84252 
vn 0.472441 -0.267717 0.84252 
vn -0.472441 -0.267717 0.84252 
vn 0.267717 -0.472441 0.84252 
vn -0.267717 -0.472441 0.84252 
vn 0.267717 -0.472441 0.84252 
vn -0.267717 -0.472441 0.84252 
vn 0 -0.543307 0.84252 
vn 0 -0.543307 0.84252 
vn -0.606299 0 0.795276 
vn -0.314961 0.181102 0.929134 
vn -0.299213 0.527559 0.795276 
vn -0.866142 0.503937 0 
vn -0.866142 0.503937 0 
vn -0.503937 0.866142 0 
vn -1 0 0 
vn -0.503937 0.866142 0 
vn -1 0 0 
vn 0 1 0 
vn -0.866142 -0.503937 0 
vn -0.866142 -0.503937 0 
vn -0.503937 -0.866142 0 
vn -0.503937 -0.866142 0 
vn 0.527559 -0.299213 0.795276 
vn 0.181102 -0.314961 0.929134 
vn 0 -0.606299 0.795276 
vn -1 0 0 
vn -0.503937 -0.866142 0 
vn -0.503937 -0.866142 0 
vn 0 -1 0 
vn 0 -1 0 
vn 0.503937 -0.866142 0 
vn 0.503937 -0.866142 0 
vn -1 -1 -1 

vt -0.244041 0.385705 
vt -0.244041 0.379658 
vt -0.266926 0.379658 
vt -0.244041 0.363138 
vt -0.266926 0.363138 
vt -0.244041 0.340572 
vt -0.266926 0.301486 
vt -0.266926 0.340572 
vt -0.244041 0.301486 
vt -0.244041 0.318006 
vt -0.266926 0.318006 
vt -0.266598 0.363466 
vt -0.260019 0.373497 
vt -0.216341 0.373497 
vt -0.221465 0.340582 
vt -0.198899 0.363466 
vt -0.221465 0.363466 
vt -0.244032 0.340582 
vt -0.244032 0.363466 
vt -0.266598 0.340582 
vt -0.266598 0.363466 
vt -0.198899 0.340572 
vt -0.204946 0.363138 
vt -0.216341 0.356559 
vt -0.221465 0.379658 
vt -0.212057 0.340572 
vt -0.228044 0.368263 
vt -0.244032 0.385705 
vt -0.204946 0.318006 
vt -0.216341 0.324585 
vt -0.221465 0.301486 
vt -0.228044 0.312881 
vt -0.244032 0.295439 
vt -0.244032 0.372547 
vt -0.244032 0.308597 
vt -0.276006 0.340572 
vt -0.260019 0.312881 
vt -0.266598 0.301486 
vt -0.271723 0.324585 
vt -0.283118 0.318006 
vt -0.289164 0.340572 
vt -0.271723 0.356559 
vt -0.283118 0.363138 
vt -0.260019 0.368263 
vt -0.266598 0.379658 
vt -0.244032 0.385705 
vt -0.266598 0.301486 
vt -0.221465 0.379658 
vt -0.244032 0.436834 
vt -0.244032 0.385705 
vt -0.266598 0.379658 
vt -0.195901 0.423938 
vt -0.292163 0.423938 
vt -0.204946 0.363138 
vt -0.160666 0.388703 
vt -0.283118 0.363138 
vt -0.327398 0.388703 
vt -0.147769 0.340572 
vt -0.340294 0.340572 
vt -0.198899 0.340572 
vt -0.289164 0.340572 
vt -0.204946 0.318006 
vt -0.283118 0.318006 
vt -0.160666 0.292441 
vt -0.327397 0.292441 
vt -0.221465 0.301486 
vt -0.266598 0.301486 
vt -0.195901 0.257206 
vt -0.292163 0.257206 
vt -0.244032 0.295439 
vt -0.244032 0.24431 
vt -0.221138 0.340572 
vt -0.211106 0.356559 
vt -0.221138 0.379658 
vt -0.244022 0.363138 
vt -0.221138 0.363138 
vt -0.244022 0.379658 
vt -0.221138 0.340572 
vt -0.221138 0.379658 
vt -0.244022 0.340572 
vt -0.244022 0.385705 
vt -0.221138 0.318006 
vt -0.244022 0.318006 
vt -0.221138 0.301486 
vt -0.244022 0.301486 
vt -0.204946 0.363466 
vt -0.228044 0.373497 
vt -0.244032 0.363466 
vt -0.289164 0.340582 
vt -0.266598 0.363466 
vt -0.266598 0.340582 
vt -0.244032 0.363466 
vt -0.244032 0.340582 
vt -0.221465 0.363466 
vt -0.221465 0.340582 
vt 0 1 

usemtl Screw1Mtl

f 2/2/2 3/3/3 4/4/4 
f 4/4/4 3/3/3 5/5/5 
f 4/4/4 5/5/5 6/6/6 
f 6/6/6 5/5/5 8/8/8 
f 8/8/8 10/10/10 6/6/6 
f 9/9/9 11/11/11 7/7/7 
f 10/10/10 8/8/8 11/11/11 
f 11/11/11 9/9/9 10/10/10 
f 15/15/15 17/17/17 18/18/18 
f 18/18/18 17/17/17 19/19/19 
f 18/18/18 19/19/19 20/20/20 
f 20/20/20 19/19/19 21/21/21 
f 22/22/22 23/23/23 24/24/24 
f 25/25/25 24/24/24 23/23/23 
f 22/22/22 24/24/24 26/26/26 
f 24/24/24 25/25/25 27/27/27 
f 27/27/27 26/26/26 24/24/24 
f 28/28/28 27/27/27 25/25/25 
f 29/29/29 22/22/22 26/26/26 
f 26/26/26 30/30/30 29/29/29 
f 30/30/30 31/31/31 29/29/29 
f 31/31/31 30/30/30 32/32/32 
f 26/26/26 32/32/32 30/30/30 
f 32/32/32 33/33/33 31/31/31 
f 34/34/34 26/26/26 27/27/27 
f 27/27/27 28/28/28 34/34/34 
f 32/32/32 26/26/26 35/35/35 
f 33/33/33 32/32/32 35/35/35 
f 26/26/26 34/34/34 36/36/36 
f 26/26/26 36/36/36 35/35/35 
f 37/37/37 33/33/33 35/35/35 
f 33/33/33 37/37/37 38/38/38 
f 35/35/35 39/39/39 37/37/37 
f 39/39/39 38/38/38 37/37/37 
f 35/35/35 36/36/36 39/39/39 
f 38/38/38 39/39/39 40/40/40 
f 36/36/36 40/40/40 39/39/39 
f 40/40/40 36/36/36 41/41/41 
f 42/42/42 41/41/41 36/36/36 
f 34/34/34 42/42/42 36/36/36 
f 41/41/41 42/42/42 43/43/43 
f 42/42/42 34/34/34 44/44/44 
f 44/44/44 43/43/43 42/42/42 
f 44/44/44 34/34/34 28/28/28 
f 43/43/43 44/44/44 45/45/45 
f 28/28/28 45/45/45 44/44/44 
f 48/48/48 49/49/49 50/50/50 
f 50/50/50 49/49/49 51/51/51 
f 49/49/49 48/48/48 52/52/52 
f 49/49/49 53/53/53 51/51/51 
f 54/54/54 52/52/52 48/48/48 
f 52/52/52 54/54/54 55/55/55 
f 53/53/53 56/56/56 51/51/51 
f 57/57/57 56/56/56 53/53/53 
f 55/55/55 54/54/54 58/58/58 
f 59/59/59 56/56/56 57/57/57 
f 58/58/58 54/54/54 60/60/60 
f 56/56/56 59/59/59 61/61/61 
f 62/62/62 58/58/58 60/60/60 
f 59/59/59 63/63/63 61/61/61 
f 58/58/58 62/62/62 64/64/64 
f 63/63/63 59/59/59 65/65/65 
f 66/66/66 64/64/64 62/62/62 
f 63/63/63 65/65/65 67/67/67 
f 64/64/64 66/66/66 68/68/68 
f 65/65/65 69/69/69 67/67/67 
f 70/70/70 68/68/68 66/66/66 
f 69/69/69 70/70/70 67/67/67 
f 68/68/68 70/70/70 71/71/71 
f 71/71/71 70/70/70 69/69/69 
f 75/75/75 76/76/76 77/77/77 
f 75/75/75 78/78/78 76/76/76 
f 77/77/77 76/76/76 79/79/79 
f 78/78/78 75/75/75 80/80/80 
f 80/80/80 82/82/82 78/78/78 
f 83/83/83 82/82/82 80/80/80 
f 83/83/83 84/84/84 82/82/82 
f 85/85/85 84/84/84 83/83/83 
f 91/91/91 92/92/92 90/90/90 
f 93/93/93 92/92/92 91/91/91 
f 93/93/93 94/94/94 92/92/92 
f 95/95/95 94/94/94 93/93/93 

g Light1

v -9.24345 2.68604 -43.3344 
v -9.29491 2.65633 -43.3938 
v -9.24345 2.68604 -43.2783 
v -9.17896 2.44538 -43.3344 
v -9.17896 2.44538 -43.2783 
v -9.24345 2.20473 -43.3344 
v -9.24345 2.20473 -43.2783 
v -9.24345 2.68604 -43.3344 
v -9.29491 2.65633 -43.3938 
v -9.44933 2.81075 -43.3938 
v -9.41962 2.86221 -43.3344 
v -9.41962 2.86221 -43.2783 
v -9.24345 2.68604 -43.2783 
v -9.66027 2.9267 -43.2783 
v -9.66027 2.9267 -43.3344 
v -9.90093 2.86221 -43.2783 
v -9.90093 2.86221 -43.3344 
v -9.90093 2.86221 -43.2783 
v -9.90093 2.86221 -43.3344 
v -10.0771 2.68604 -43.2783 
v -10.0771 2.68604 -43.3344 
v -10.0256 2.65633 -43.3938 
v -10.1416 2.44538 -43.2783 
v -10.1416 2.44538 -43.3344 
v -10.0771 2.20473 -43.2783 
v -10.0771 2.20473 -43.3344 
v -9.90093 2.02855 -43.2783 
v -10.0256 2.23444 -43.3938 
v -9.87122 2.08002 -43.3938 
v -9.90093 2.02855 -43.3344 
v -9.24345 2.20473 -43.3344 
v -9.24345 2.20473 -43.2783 
v -10.0771 2.20473 -43.2783 
v -9.90093 2.02855 -43.2783 
v -10.0256 2.23444 -43.3938 
v -9.87122 2.08002 -43.3938 
v -9.90093 2.02855 -43.3344 
v -9.66027 1.96407 -43.2783 
v -9.66027 1.96407 -43.3344 
v -9.41962 2.02855 -43.2783 
v -9.44933 2.08002 -43.3938 
v -9.41962 2.02855 -43.3344 
v -9.24345 2.68604 -43.3344 
v -9.23839 2.44538 -43.3938 
v -9.29491 2.65633 -43.3938 
v -9.44933 2.81075 -43.3938 
v -9.41962 2.86221 -43.3344 
v -9.24345 2.68604 -43.2783 
v -9.66027 2.9267 -43.2783 
v -9.17896 2.44538 -43.3344 
v -9.24345 2.20473 -43.3344 
v -9.24345 2.20473 -43.2783 
v -9.66027 2.9267 -43.3344 
v -9.66027 2.86727 -43.3938 
v -9.90093 2.86221 -43.3344 
v -10.0771 2.68604 -43.2783 
v -9.87122 2.81075 -43.3938 
v -10.0771 2.68604 -43.3344 
v -10.0256 2.65633 -43.3938 
v -10.0822 2.44538 -43.3938 
v -10.1416 2.44538 -43.3344 
v -10.0771 2.20473 -43.2783 
v -10.0771 2.20473 -43.3344 
v -10.0256 2.23444 -43.3938 
v -9.66027 2.0235 -43.3938 
v -9.87122 2.08002 -43.3938 
v -9.90093 2.02855 -43.3344 
v -9.66027 1.96407 -43.2783 
v -9.66027 1.96407 -43.3344 
v -9.44933 2.08002 -43.3938 
v -9.41962 2.02855 -43.3344 
v -9.29491 2.23444 -43.3938 
v 0 0 0 

vn 0.811024 0.464567 -0.362205 
vn 0.377953 0.220472 -0.897638 
vn 0.866142 0.503937 0 
vn 0.929134 0 -0.362205 
vn 1 0 0 
vn 0.811024 -0.464567 -0.362205 
vn 0.866142 -0.503937 0 
vn 0.811024 0.464567 -0.362205 
vn 0.377953 0.220472 -0.897638 
vn 0.220472 0.377953 -0.897638 
vn 0.464567 0.811024 -0.362205 
vn 0.503937 0.866142 0 
vn 0.866142 0.503937 0 
vn 0 1 0 
vn 0 0.929134 -0.362205 
vn -0.503937 0.866142 0 
vn -0.464567 0.811024 -0.362205 
vn -0.503937 0.866142 0 
vn -0.464567 0.811024 -0.362205 
vn -0.866142 0.503937 0 
vn -0.811024 0.464567 -0.362205 
vn -0.377953 0.220472 -0.897638 
vn -1 0 0 
vn -0.929134 0 -0.362205 
vn -0.866142 -0.503937 0 
vn -0.811024 -0.464567 -0.362205 
vn -0.503937 -0.866142 0 
vn -0.377953 -0.220472 -0.897638 
vn -0.220472 -0.377953 -0.897638 
vn -0.464567 -0.811024 -0.362205 
vn 0.811024 -0.464567 -0.362205 
vn 0.866142 -0.503937 0 
vn -0.866142 -0.503937 0 
vn -0.503937 -0.866142 0 
vn -0.377953 -0.220472 -0.897638 
vn -0.220472 -0.377953 -0.897638 
vn -0.464567 -0.811024 -0.362205 
vn 0 -1 0 
vn 0 -0.929134 -0.362205 
vn 0.503937 -0.866142 0 
vn 0.220472 -0.377953 -0.897638 
vn 0.464567 -0.811024 -0.362205 
vn 0.811024 0.464567 -0.362205 
vn 0.433071 0 -0.897638 
vn 0.377953 0.220472 -0.897638 
vn 0.220472 0.377953 -0.897638 
vn 0.464567 0.811024 -0.362205 
vn 0.866142 0.503937 0 
vn 0 1 0 
vn 0.929134 0 -0.362205 
vn 0.811024 -0.464567 -0.362205 
vn 0.866142 -0.503937 0 
vn 0 0.929134 -0.362205 
vn 0 0.433071 -0.897638 
vn -0.464567 0.811024 -0.362205 
vn -0.866142 0.503937 0 
vn -0.220472 0.377953 -0.897638 
vn -0.811024 0.464567 -0.362205 
vn -0.377953 0.220472 -0.897638 
vn -0.433071 0 -0.897638 
vn -0.929134 0 -0.362205 
vn -0.866142 -0.503937 0 
vn -0.811024 -0.464567 -0.362205 
vn -0.377953 -0.220472 -0.897638 
vn 0 -0.433071 -0.897638 
vn -0.220472 -0.377953 -0.897638 
vn -0.464567 -0.811024 -0.362205 
vn 0 -1 0 
vn 0 -0.929134 -0.362205 
vn 0.220472 -0.377953 -0.897638 
vn 0.464567 -0.811024 -0.362205 
vn 0.377953 -0.220472 -0.897638 
vn -1 -1 -1 

vt 0.595307 1.1649 
vt 0.654621 1.13519 
vt 0.539166 1.1649 
vt 0.595307 0.924245 
vt 0.539166 0.924245 
vt 0.595307 0.683589 
vt 0.539166 0.683589 
vt 0.180064 0.925831 
vt 0.231529 0.866518 
vt 0.385951 0.866518 
vt 0.356238 0.925831 
vt 0.356238 0.981973 
vt 0.180064 0.981973 
vt 0.596893 0.981973 
vt 0.596893 0.925831 
vt 0.83755 0.981973 
vt 0.83755 0.925831 
vt 0.654621 1.34107 
vt 0.59848 1.34107 
vt 0.654621 1.1649 
vt 0.59848 1.1649 
vt 0.539166 1.13519 
vt 0.654621 0.924245 
vt 0.59848 0.924245 
vt 0.654621 0.683589 
vt 0.59848 0.683589 
vt 0.654621 0.507417 
vt 0.539166 0.713302 
vt 0.539166 0.558881 
vt 0.59848 0.507417 
vt 1.01372 0.925831 
vt 1.01372 0.981973 
vt 0.180066 0.981973 
vt 0.356237 0.981973 
vt 0.231529 0.866518 
vt 0.385951 0.866518 
vt 0.356237 0.925831 
vt 0.596893 0.981973 
vt 0.596893 0.925831 
vt 0.837549 0.981973 
vt 0.807836 0.866518 
vt 0.837549 0.925831 
vt 0.180064 1.1649 
vt 0.175008 0.924245 
vt 0.231529 1.13519 
vt 0.385951 1.28961 
vt 0.356238 1.34107 
vt 0.180064 1.1649 
vt 0.596893 1.40556 
vt 0.115582 0.924245 
vt 0.180064 0.683589 
vt 0.180064 0.683589 
vt 0.596893 1.40556 
vt 0.596893 1.34613 
vt 0.83755 1.34107 
vt 1.01372 1.1649 
vt 0.807836 1.28961 
vt 1.01372 1.1649 
vt 0.962258 1.13519 
vt 1.01878 0.924245 
vt 1.07821 0.924245 
vt 1.01372 0.683589 
vt 1.01372 0.683589 
vt 0.962258 0.713302 
vt 0.596893 0.502359 
vt 0.807836 0.558881 
vt 0.83755 0.507417 
vt 0.596893 0.442933 
vt 0.596893 0.442933 
vt 0.385951 0.558881 
vt 0.356238 0.507417 
vt 0.231529 0.713302 
vt 0 1 

usemtl Light1Mtl

f 100/100/100 97/97/97 99/99/99 
f 100/100/100 99/99/99 101/101/101 
f 102/102/102 100/100/100 101/101/101 
f 102/102/102 101/101/101 103/103/103 
f 104/104/104 107/107/107 108/108/108 
f 104/104/104 108/108/108 109/109/109 
f 107/107/107 110/110/110 108/108/108 
f 110/110/110 107/107/107 111/111/111 
f 111/111/111 112/112/112 110/110/110 
f 111/111/111 113/113/113 112/112/112 
f 115/115/115 116/116/116 114/114/114 
f 115/115/115 117/117/117 116/116/116 
f 117/117/117 119/119/119 116/116/116 
f 117/117/117 120/120/120 119/119/119 
f 120/120/120 121/121/121 119/119/119 
f 120/120/120 122/122/122 121/121/121 
f 122/122/122 123/123/123 121/121/121 
f 123/123/123 122/122/122 126/126/126 
f 133/133/133 134/134/134 130/130/130 
f 134/134/134 133/133/133 135/135/135 
f 135/135/135 136/136/136 134/134/134 
f 135/135/135 138/138/138 136/136/136 
f 138/138/138 128/128/128 136/136/136 
f 138/138/138 127/127/127 128/128/128 
f 139/139/139 140/140/140 141/141/141 
f 142/142/142 139/139/139 141/141/141 
f 140/140/140 142/142/142 141/141/141 
f 139/139/139 142/142/142 143/143/143 
f 140/140/140 139/139/139 146/146/146 
f 146/146/146 147/147/147 140/140/140 
f 150/150/150 143/143/143 142/142/142 
f 149/149/149 143/143/143 150/150/150 
f 140/140/140 150/150/150 142/142/142 
f 150/150/150 151/151/151 149/149/149 
f 151/151/151 150/150/150 153/153/153 
f 153/153/153 154/154/154 151/151/151 
f 150/150/150 155/155/155 153/153/153 
f 154/154/154 153/153/153 155/155/155 
f 155/155/155 150/150/150 156/156/156 
f 156/156/156 154/154/154 155/155/155 
f 156/156/156 150/150/150 140/140/140 
f 154/154/154 156/156/156 157/157/157 
f 160/160/160 157/157/157 156/156/156 
f 159/159/159 157/157/157 160/160/160 
f 156/156/156 161/161/161 160/160/160 
f 156/156/156 140/140/140 161/161/161 
f 160/160/160 162/162/162 159/159/159 
f 160/160/160 161/161/161 162/162/162 
f 163/163/163 159/159/159 162/162/162 
f 162/162/162 165/165/165 163/163/163 
f 165/165/165 162/162/162 161/161/161 
f 166/166/166 165/165/165 161/161/161 
f 140/140/140 166/166/166 161/161/161 
f 165/165/165 166/166/166 167/167/167 
f 166/166/166 140/140/140 168/168/168 
f 168/168/168 167/167/167 166/166/166 
f 168/168/168 140/140/140 147/147/147 
f 147/147/147 167/167/167 168/168/168 

