# This file is brought to you by Roblox Corporation
# Generated by Roblox Studio

mtllib DoorC.mtl

g Glass1

v -19.8747 1.84247 -39.5738 
v -19.2898 4.69429 -37.5146 
v -19.8747 1.84247 -37.1156 
v -19.2898 4.69429 -39.5738 
v -19.2898 4.69429 -37.5146 
v -19.2898 4.69429 -39.5738 
v -19.4799 4.69429 -39.5738 
v -19.4799 4.69429 -37.5146 
v -19.8747 1.84247 -37.1156 
v -19.4799 4.69429 -37.5146 
v -20.0648 1.84247 -37.1156 
v -19.2898 4.69429 -37.5146 
v -20.0648 1.84247 -39.5738 
v -19.4799 4.69429 -37.5146 
v -19.4799 4.69429 -39.5738 
v -20.0648 1.84247 -37.1156 
v -19.8747 1.84247 -39.5738 
v -19.8747 1.84247 -37.1156 
v -20.0648 1.84247 -39.5738 
v -20.0648 1.84247 -37.1156 
v -19.8747 1.84247 -39.5738 
v -19.4799 4.69429 -39.5738 
v -19.2898 4.69429 -39.5738 
v -20.0648 1.84247 -39.5738 

vn 0.976378 -0.204724 0 
vn 0.976378 -0.204724 0 
vn 0.976378 -0.204724 0 
vn 0.976378 -0.204724 0 
vn 0 1 0 
vn 0 1 0 
vn 0 1 0 
vn 0 1 0 
vn 0 0.141732 0.992126 
vn 0 0.141732 0.992126 
vn 0 0.141732 0.992126 
vn 0 0.141732 0.992126 
vn -0.976378 0.204724 0 
vn -0.976378 0.204724 0 
vn -0.976378 0.204724 0 
vn -0.976378 0.204724 0 
vn 0 -1 0 
vn 0 -1 0 
vn 0 -1 0 
vn 0 -1 0 
vn 0 0 -1 
vn 0 0 -1 
vn 0 0 -1 
vn 0 0 -1 

vt 2.48934 0.64265 
vt 0.430118 3.49447 
vt 0.0311627 0.64265 
vt 2.48934 3.49447 
vt 0.872769 2.89869 
vt 0.872769 0.839475 
vt 1.06286 0.839475 
vt 1.06286 2.89869 
vt 1.06286 0.64265 
vt 1.45764 3.49447 
vt 0.872769 0.64265 
vt 1.64773 3.49447 
vt 0.0311629 0.64265 
vt 2.09038 3.49447 
vt 0.0311629 3.49447 
vt 2.48934 0.64265 
vt 1.06286 0.839475 
vt 1.06286 3.29765 
vt 0.872769 0.839475 
vt 0.872769 3.29765 
vt 1.45764 0.64265 
vt 1.06286 3.49447 
vt 0.872769 3.49447 
vt 1.64773 0.64265 

usemtl Glass1Mtl

f 1/1/1 2/2/2 3/3/3 
f 2/2/2 1/1/1 4/4/4 
f 5/5/5 6/6/6 7/7/7 
f 7/7/7 8/8/8 5/5/5 
f 9/9/9 10/10/10 11/11/11 
f 10/10/10 9/9/9 12/12/12 
f 13/13/13 14/14/14 15/15/15 
f 14/14/14 13/13/13 16/16/16 
f 17/17/17 18/18/18 19/19/19 
f 19/19/19 18/18/18 20/20/20 
f 21/21/21 22/22/22 23/23/23 
f 22/22/22 21/21/21 24/24/24 

g Door1

v -19.8211 1.84212 -39.725 
v -19.2093 4.82516 -39.725 
v -19.2362 4.69394 -39.5832 
v -19.8211 1.84212 -39.5832 
v -19.2093 4.82516 -37.3901 
v -19.2362 4.69394 -37.524 
v -19.8211 1.84212 -36.9471 
v -19.8211 1.84212 -37.1251 
v -19.8211 0.945825 -36.9471 
v -19.8211 1.84212 -39.5832 
v -19.8211 1.84212 -37.1251 
v -19.8211 1.84212 -36.9471 
v -19.8211 0.0656126 -37.3395 
v -19.8211 0.0656126 -39.725 
v -19.8211 1.84212 -39.725 
v -19.2093 4.82516 -37.3901 
v -19.2093 4.82516 -39.725 
v -19.4994 4.82516 -39.725 
v -19.4994 4.82516 -37.3901 
v -20.1112 1.84212 -39.5832 
v -19.8211 1.84212 -37.1251 
v -19.8211 1.84212 -39.5832 
v -20.1112 1.84212 -37.1251 
v -19.8211 0.0656126 -37.3395 
v -20.1112 0.945825 -36.9471 
v -20.1112 0.0656126 -37.3395 
v -19.8211 0.945825 -36.9471 
v -19.8211 0.945825 -36.9471 
v -19.8211 1.84212 -36.9471 
v -20.1112 0.945825 -36.9471 
v -20.1112 1.84212 -36.9471 
v -19.8211 1.84212 -36.9471 
v -19.4994 4.82516 -37.3901 
v -20.1112 1.84212 -36.9471 
v -19.2093 4.82516 -37.3901 
v -19.8211 1.84212 -39.5832 
v -19.5263 4.69394 -39.5832 
v -20.1112 1.84212 -39.5832 
v -19.2362 4.69394 -39.5832 
v -20.1112 0.0656126 -39.725 
v -20.1112 0.0656126 -37.3395 
v -20.1112 1.84212 -39.5832 
v -20.1112 1.84212 -39.725 
v -20.1112 0.945825 -36.9471 
v -20.1112 1.84212 -37.1251 
v -20.1112 1.84212 -36.9471 
v -20.1112 1.84212 -39.725 
v -19.5263 4.69394 -39.5832 
v -19.4994 4.82516 -39.725 
v -20.1112 1.84212 -39.5832 
v -19.4994 4.82516 -37.3901 
v -19.5263 4.69394 -37.524 
v -20.1112 1.84212 -36.9471 
v -20.1112 1.84212 -37.1251 
v -19.8211 0.0656126 -39.725 
v -20.1112 0.0656126 -37.3395 
v -20.1112 0.0656126 -39.725 
v -19.8211 0.0656126 -37.3395 
v -19.2362 4.69394 -39.5832 
v -19.2362 4.69394 -37.524 
v -19.5263 4.69394 -39.5832 
v -19.5263 4.69394 -37.524 
v -19.8211 1.84212 -39.725 
v -20.1112 0.0656126 -39.725 
v -20.1112 1.84212 -39.725 
v -19.8211 0.0656126 -39.725 
v -19.4994 4.82516 -39.725 
v -19.2093 4.82516 -39.725 
v -19.2362 4.69394 -37.524 
v -19.8211 1.84212 -37.1251 
v -19.5263 4.69394 -37.524 
v -20.1112 1.84212 -37.1251 

vn 0.976378 -0.204724 0 
vn 0.976378 -0.204724 0 
vn 0.976378 -0.204724 0 
vn 0.976378 -0.204724 0 
vn 0.976378 -0.204724 0 
vn 0.976378 -0.204724 0 
vn 0.976378 -0.204724 0 
vn 0.976378 -0.204724 0 
vn 1 0 0 
vn 1 0 0 
vn 1 0 0 
vn 1 0 0 
vn 1 0 0 
vn 1 0 0 
vn 1 0 0 
vn 0 1 0 
vn 0 1 0 
vn 0 1 0 
vn 0 1 0 
vn 0 1 0 
vn 0 1 0 
vn 0 1 0 
vn 0 1 0 
vn 0 -0.409449 0.913386 
vn 0 -0.409449 0.913386 
vn 0 -0.409449 0.913386 
vn 0 -0.409449 0.913386 
vn 0 0 1 
vn 0 0 1 
vn 0 0 1 
vn 0 0 1 
vn 0 0.149606 0.992126 
vn 0 0.149606 0.992126 
vn 0 0.149606 0.992126 
vn 0 0.149606 0.992126 
vn 0 0 1 
vn 0 0 1 
vn 0 0 1 
vn 0 0 1 
vn -1 0 0 
vn -1 0 0 
vn -1 0 0 
vn -1 0 0 
vn -1 0 0 
vn -1 0 0 
vn -1 0 0 
vn -0.976378 0.204724 0 
vn -0.976378 0.204724 0 
vn -0.976378 0.204724 0 
vn -0.976378 0.204724 0 
vn -0.976378 0.204724 0 
vn -0.976378 0.204724 0 
vn -0.976378 0.204724 0 
vn -0.976378 0.204724 0 
vn 0 -1 0 
vn 0 -1 0 
vn 0 -1 0 
vn 0 -1 0 
vn 0 -1 0 
vn 0 -1 0 
vn 0 -1 0 
vn 0 -1 0 
vn 0 0 -1 
vn 0 0 -1 
vn 0 0 -1 
vn 0 0 -1 
vn 0 0 -1 
vn 0 0 -1 
vn 0 -0.141732 -0.992126 
vn 0 -0.141732 -0.992126 
vn 0 -0.141732 -0.992126 
vn 0 -0.141732 -0.992126 

vt 1.89971 4.1846 
vt 1.89971 4.78121 
vt 1.87137 4.75496 
vt 1.87137 4.1846 
vt 1.43275 4.78121 
vt 1.45952 4.75496 
vt 1.34414 4.1846 
vt 1.37973 4.1846 
vt 1.34414 4.00534 
vt 1.87137 4.1846 
vt 1.37973 4.1846 
vt 1.34414 4.1846 
vt 1.42263 3.8293 
vt 1.89971 3.8293 
vt 1.89971 4.1846 
vt 1.53174 4.49443 
vt 1.53174 4.02746 
vt 1.58975 4.02746 
vt 1.58975 4.49443 
vt 1.71211 4.05581 
vt 1.65409 4.54744 
vt 1.65409 4.05581 
vt 1.71211 4.54744 
vt 1.58975 3.8293 
vt 1.53174 4.00534 
vt 1.53174 3.8293 
vt 1.58975 4.00534 
vt 1.58975 4.00534 
vt 1.58975 4.1846 
vt 1.53174 4.00534 
vt 1.53174 4.1846 
vt 1.58975 4.1846 
vt 1.65409 4.78121 
vt 1.53174 4.1846 
vt 1.71211 4.78121 
vt 1.58975 4.1846 
vt 1.64871 4.75496 
vt 1.53174 4.1846 
vt 1.70673 4.75496 
vt 1.34414 3.8293 
vt 1.82122 3.8293 
vt 1.37248 4.1846 
vt 1.34414 4.1846 
vt 1.89971 4.00534 
vt 1.86412 4.1846 
vt 1.89971 4.1846 
vt 1.34414 4.1846 
vt 1.37248 4.75496 
vt 1.34414 4.78121 
vt 1.37248 4.1846 
vt 1.8111 4.78121 
vt 1.78433 4.75496 
vt 1.89971 4.1846 
vt 1.86412 4.1846 
vt 1.58975 4.02746 
vt 1.53174 4.50455 
vt 1.53174 4.02746 
vt 1.58975 4.50455 
vt 1.70673 4.05581 
vt 1.70673 4.46765 
vt 1.64871 4.05581 
vt 1.64871 4.46765 
vt 1.65409 4.1846 
vt 1.71211 3.8293 
vt 1.71211 4.1846 
vt 1.65409 3.8293 
vt 1.58975 4.78121 
vt 1.53174 4.78121 
vt 1.53712 4.75496 
vt 1.65409 4.1846 
vt 1.59514 4.75496 
vt 1.71211 4.1846 

usemtl Door1Mtl

f 25/25/25 26/26/26 27/27/27 
f 25/25/25 27/27/27 28/28/28 
f 26/26/26 29/29/29 27/27/27 
f 27/27/27 29/29/29 30/30/30 
f 31/31/31 30/30/30 29/29/29 
f 30/30/30 31/31/31 32/32/32 
f 33/33/33 34/34/34 35/35/35 
f 33/33/33 35/35/35 36/36/36 
f 34/34/34 33/33/33 37/37/37 
f 38/38/38 34/34/34 37/37/37 
f 34/34/34 38/38/38 39/39/39 
f 40/40/40 41/41/41 42/42/42 
f 42/42/42 43/43/43 40/40/40 
f 44/44/44 45/45/45 46/46/46 
f 45/45/45 44/44/44 47/47/47 
f 48/48/48 49/49/49 50/50/50 
f 49/49/49 48/48/48 51/51/51 
f 52/52/52 53/53/53 54/54/54 
f 54/54/54 53/53/53 55/55/55 
f 56/56/56 57/57/57 58/58/58 
f 57/57/57 56/56/56 59/59/59 
f 60/60/60 61/61/61 62/62/62 
f 61/61/61 60/60/60 63/63/63 
f 64/64/64 65/65/65 66/66/66 
f 67/67/67 64/64/64 66/66/66 
f 68/68/68 66/66/66 65/65/65 
f 66/66/66 68/68/68 69/69/69 
f 68/68/68 70/70/70 69/69/69 
f 71/71/71 72/72/72 73/73/73 
f 72/72/72 71/71/71 74/74/74 
f 75/75/75 73/73/73 72/72/72 
f 75/75/75 72/72/72 76/76/76 
f 77/77/77 75/75/75 76/76/76 
f 76/76/76 78/78/78 77/77/77 
f 79/79/79 80/80/80 81/81/81 
f 80/80/80 79/79/79 82/82/82 
f 83/83/83 84/84/84 85/85/85 
f 85/85/85 84/84/84 86/86/86 
f 87/87/87 88/88/88 89/89/89 
f 88/88/88 87/87/87 90/90/90 
f 89/89/89 91/91/91 87/87/87 
f 92/92/92 87/87/87 91/91/91 
f 93/93/93 94/94/94 95/95/95 
f 95/95/95 94/94/94 96/96/96 

